<?xml version="1.0" encoding="utf-8"?>
<!-- Generator: Adobe Illustrator 19.2.1, SVG Export Plug-In . SVG Version: 6.00 Build 0)  -->
<svg version="1.1" id="layer" xmlns="http://www.w3.org/2000/svg" xmlns:xlink="http://www.w3.org/1999/xlink" x="0px" y="0px"
	 viewBox="0 0 652 652" style="enable-background:new 0 0 652 652;" xml:space="preserve">
<style type="text/css">
	.st0{fill:#003764;}
</style>
<g>
	<path class="st0" d="M190.8,363.1l-81.2-142.9c-1.6-2.8-3.9-2.2-3.9-2.2c-1.1,0.2-1.9,1-2.4,1.7L21.5,363.3
		c-0.6,1.4-0.7,2.8,0.1,3.9c0.6,0.9,1.7,1.4,3,1.6h162.9c1.4,0,2.7-0.6,3.3-1.6C191.5,366,191.5,364.5,190.8,363.1"/>
	<path class="st0" d="M156.8,399.5c-1.8,0-3.2,0.6-4.2,1.7c-1.1,1.2-1.6,2.9-1.6,5.2c0,2.4,0.5,4.1,1.6,5.3c1,1.1,2.5,1.7,4.3,1.7
		c1.9,0,3.3-0.6,4.3-1.7c1.1-1.2,1.6-2.9,1.6-5.2C162.8,401.8,160.8,399.5,156.8,399.5"/>
	<path class="st0" d="M438.3,399.5c-1.8,0-3.2,0.6-4.3,1.7c-1.1,1.2-1.6,2.9-1.6,5.2c0,2.4,0.5,4.1,1.6,5.3c1,1.1,2.5,1.7,4.3,1.7
		c1.9,0,3.3-0.6,4.3-1.7c1.1-1.2,1.6-2.9,1.6-5.2C444.4,401.8,442.3,399.5,438.3,399.5"/>
</g>
<polygon class="st0" points="536.7,410.2 542.7,410.2 539.7,401.1 "/>
<g>
	<path class="st0" d="M600.6,418.9h-25.1V394h8.7v18.6h16.3V418.9z M545.4,418.9l-1-2.3h-9.3l-0.9,2.3h-9.1l9.1-24.9h11.6l9.1,24.9
		H545.4z M504.4,418.9h-9.6l-10-13.5v13.5H476V394h9.9l9.7,13.6V394h8.7V418.9z M450.4,416.2c-1.7,1.5-3.6,2.4-5.7,2.9
		c-2,0.4-4.1,0.6-6.3,0.6c-3.7,0-6.6-0.5-8.7-1.4c-2.8-1.2-4.7-3-5.7-5.4c-0.7-1.7-1.1-3.9-1.1-6.4c0-4.4,1.2-7.7,3.5-9.8
		c1.7-1.5,3.6-2.4,5.7-2.9c2-0.4,4.2-0.6,6.6-0.6c3.5,0,6.3,0.5,8.5,1.4c2.8,1.2,4.7,3,5.7,5.4c0.7,1.7,1.1,3.9,1.1,6.4
		C454,410.8,452.8,414.1,450.4,416.2 M400.7,418.9H392V394h8.7V418.9z M366,417.7c-2.7,1.3-6.3,1.9-11,1.9c-4.9,0-8.6-0.7-10.9-2.1
		c-1.7-1-2.8-2.3-3.3-3.8c-0.2-0.6-0.4-1.4-0.4-2.4h12.1c0.4,0.7,0.9,1.2,1.5,1.5c0.7,0.3,1.6,0.5,2.6,0.5c2.1,0,3.1-0.5,3.1-1.6
		c0-0.8-0.5-1.2-1.5-1.4c-0.9-0.2-2.9-0.4-6-0.7c-2.8-0.3-5.2-0.8-7.2-1.5c-1.4-0.5-2.5-1.3-3.2-2.4c-0.7-1.1-1.1-2.4-1.1-3.9
		c0-2.1,0.7-3.8,2-5.1c2.3-2.3,6.5-3.5,12.6-3.5c4.9,0,8.5,0.8,10.8,2.5c1.3,0.9,2.3,2.2,2.9,3.7c0.2,0.5,0.4,1.1,0.6,2H358
		c-0.3-0.7-0.6-1.3-1.2-1.6c-0.7-0.5-1.7-0.7-2.9-0.7c-0.8,0-1.5,0.1-2,0.4c-0.6,0.3-0.9,0.7-0.9,1.3c0,0.6,0.4,1.1,1.3,1.3
		c1.1,0.3,3.3,0.6,6.5,0.9c2,0.2,3.5,0.4,4.4,0.6c0.9,0.2,1.9,0.5,2.8,0.9c2.8,1.2,4.2,3.3,4.2,6.5
		C370.1,414.1,368.8,416.4,366,417.7 M315.6,417.7c-2.7,1.3-6.3,1.9-11,1.9c-4.9,0-8.6-0.7-10.9-2.1c-1.7-1-2.8-2.3-3.3-3.8
		c-0.2-0.6-0.4-1.4-0.5-2.4h12.2c0.4,0.7,0.9,1.2,1.5,1.5c0.7,0.3,1.6,0.5,2.6,0.5c2.1,0,3.1-0.5,3.1-1.6c0-0.8-0.5-1.2-1.5-1.4
		c-0.9-0.2-2.9-0.4-6-0.7c-2.8-0.3-5.2-0.8-7.2-1.5c-1.4-0.5-2.5-1.3-3.2-2.4c-0.8-1.1-1.1-2.4-1.1-3.9c0-2.1,0.7-3.8,2-5.1
		c2.3-2.3,6.5-3.5,12.6-3.5c4.9,0,8.5,0.8,10.8,2.5c1.3,0.9,2.3,2.2,2.9,3.7c0.2,0.5,0.4,1.1,0.6,2h-11.4c-0.3-0.7-0.6-1.3-1.2-1.6
		c-0.7-0.5-1.7-0.7-2.9-0.7c-0.8,0-1.5,0.1-2,0.4c-0.6,0.3-0.9,0.7-0.9,1.3c0,0.6,0.4,1.1,1.3,1.3c1.1,0.3,3.3,0.6,6.5,0.9
		c2,0.2,3.5,0.4,4.4,0.6c0.9,0.2,1.8,0.5,2.8,0.9c2.8,1.2,4.2,3.3,4.2,6.5C319.8,414.1,318.4,416.4,315.6,417.7 M269.2,418.9h-26.9
		V394h25.9v6.3H251v2.8h14.2v6.4H251v3.1h18.2V418.9z M220.6,400.3h-17.4v2.9h14.4v6.3h-14.4v9.3h-8.7V394h26.1V400.3z M168.9,416.2
		c-1.7,1.5-3.6,2.4-5.7,2.9c-2,0.4-4.1,0.6-6.3,0.6c-3.7,0-6.6-0.5-8.7-1.4c-2.8-1.2-4.7-3-5.7-5.4c-0.7-1.7-1.1-3.9-1.1-6.4
		c0-4.4,1.2-7.7,3.5-9.8c1.7-1.5,3.6-2.4,5.7-2.9c2-0.4,4.2-0.6,6.6-0.6c3.5,0,6.3,0.5,8.5,1.4c2.8,1.2,4.7,3,5.7,5.4
		c0.7,1.7,1.1,3.9,1.1,6.4C172.4,410.8,171.2,414.1,168.9,416.2 M111.2,418.9c-0.1-0.7-0.2-1.8-0.3-3.3c-0.1-1.3-0.1-2.4-0.2-3.1
		c-0.2-1.3-0.7-2.1-1.6-2.4c-0.5-0.1-1.3-0.2-2.4-0.2h-5v8.9h-8.8V394h17c3,0,4.9,0.1,5.9,0.4c1.6,0.4,2.8,1.4,3.6,2.8
		c0.5,1.1,0.8,2.4,0.8,3.9c0,2.1-0.4,3.7-1.3,4.7c-0.4,0.5-1,0.9-1.6,1.2c-0.3,0.1-0.8,0.3-1.5,0.5c1.2,0.4,2.1,0.8,2.6,1.3
		c0.6,0.6,1,1.7,1.2,3.4c0.1,1.1,0.2,2.3,0.2,3.5c0,1.1,0.1,1.7,0.2,2.1c0.1,0.3,0.2,0.7,0.5,1.1H111.2z M66.5,410.1
		c-1,0.3-2.8,0.4-5.4,0.4h-8.4v8.4h-8.8V394H61c1.7,0,3.1,0.1,4.1,0.2c1,0.1,1.8,0.4,2.5,0.7c2.6,1.2,3.8,3.7,3.8,7.4
		C71.4,406.5,69.8,409.1,66.5,410.1 M616.5,386H25.4c-2.4,0-4.4,2-4.4,4.4v31.8c0,2.4,2,4.4,4.4,4.4h591.1c2.4,0,4.4-2,4.4-4.4
		v-31.8C621,388,619,386,616.5,386"/>
	<path class="st0" d="M61.1,399.9c-0.5-0.3-1.5-0.4-2.9-0.4h-5.5v5h5.5c1.3,0,2.2-0.1,2.5-0.2c0.4-0.1,0.8-0.4,1-0.8
		c0.2-0.4,0.4-1,0.4-1.6C62.1,400.9,61.8,400.3,61.1,399.9"/>
	<path class="st0" d="M109.9,400.2c-0.4-0.2-1.2-0.4-2.3-0.4h-5.9v4.9h5.8c1,0,1.7-0.1,2.1-0.2c0.8-0.3,1.2-1.1,1.2-2.3
		C110.8,401.2,110.5,400.5,109.9,400.2"/>
</g>
<polygon class="st0" points="368.7,368.8 409.5,368.8 409.5,282.6 461.1,282.6 461.1,253 315,253 315,282.9 368.7,282.9 "/>
<g>
	<path class="st0" d="M218,368.8h126.5v-30.2h-99.4V253h-43l0,99.8C202,361.6,209.2,368.8,218,368.8"/>
	<path class="st0" d="M586.7,337.1c0,2.4-2,4.4-4.4,4.4h-68.4c-2.4,0-4.4-2-4.4-4.4v-52.5c0-2.4,2-4.4,4.4-4.4h68.4
		c2.4,0,4.4,2,4.4,4.4V337.1z M605,253H491.1c-8.8,0-16,7.2-16,16v83.8c0,8.8,7.2,16,16,16H605c8.8,0,16-7.2,16-16V269
		C621,260.1,613.8,253,605,253"/>
</g>
</svg>
