<svg width="261" height="100" viewBox="0 0 261 100" fill="none" xmlns="http://www.w3.org/2000/svg">
<path d="M41.7236 2.15375e-05C64.7295 2.15375e-05 83.4868 18.0761 83.4868 40.2808C83.4868 62.5254 64.7295 80.6416 41.7236 80.6416C18.7575 80.6416 0 62.5254 0 40.2808C0 18.0761 18.7575 2.15375e-05 41.7236 2.15375e-05Z" fill="#FF8000"/>
<path d="M162.606 29.058C160.401 29.058 158.277 29.4988 156.152 30.4207C154.068 31.3024 151.784 32.5449 149.419 34.2285L150.381 30.1003H144.088L135.351 67.655H141.723L148.176 39.5989C150.18 38.2763 152.144 37.1942 154.228 36.2324C156.272 35.3107 158.156 34.8295 159.84 34.8295C162.244 34.8295 163.928 35.3107 164.89 36.2324C165.771 37.2342 166.253 38.6371 166.253 40.5611C166.253 41.4031 166.173 42.2844 166.052 43.1661C165.892 44.0483 165.651 45.0502 165.411 46.2925L158.637 75.9922H164.93L172.425 43.2866C172.585 42.6052 172.746 41.7632 172.866 40.8819C172.986 39.9197 173.026 39.1986 173.026 38.6371C173.026 35.5512 172.144 33.1861 170.301 31.5028C168.457 29.9001 165.892 29.058 162.606 29.058Z" fill="#181A1B"/>
<path d="M76.4328 13.3866L71.0219 0.400693C51.142 8.37664 44.2486 17.2747 42.6056 26.2525C40.922 35.2305 47.4549 46.0521 52.8255 50.6211C34.2688 48.4166 27.8155 53.5068 25.1301 57.3949C17.4749 68.4969 29.2185 85.6112 38.4772 100C42.3649 97.3946 46.4531 94.8297 50.3405 92.1845C42.5251 81.363 36.3127 68.1763 36.8336 65.972C37.9559 61.5232 66.7735 68.8579 71.1421 59.4386C76.1925 48.4166 58.3965 41.0822 56.7133 30.6212C56.1123 22.285 69.4184 16.8734 76.4328 13.3866Z" fill="#181A1B"/>
<path d="M128.858 43.1265C128.778 43.6071 128.738 44.1283 128.617 44.8096H118.076H107.174C108.056 41.5634 109.739 38.9582 112.225 36.9942C113.948 35.5513 115.952 34.6694 118.076 34.2286C118.878 34.0682 119.8 34.0282 120.681 34.0282C123.528 34.0282 125.652 34.7096 126.934 36.0322C128.256 37.3951 128.938 39.2786 128.938 41.6433C128.938 42.1643 128.898 42.6856 128.858 43.1265ZM122.004 29.0581C120.641 29.0581 119.319 29.1382 118.076 29.3387C113.387 30.1803 109.299 32.545 105.852 36.4329C101.523 41.3227 99.3184 47.2546 99.3184 54.1486C99.3184 58.8379 100.842 62.4449 103.768 64.8497C106.694 67.3349 110.821 68.5374 115.992 68.5374C116.754 68.5374 117.435 68.4969 118.076 68.4969C118.797 68.4571 119.479 68.3768 120.04 68.2969C121.122 68.056 122.365 67.8555 123.688 67.4951C125.09 67.1743 126.212 66.8137 127.174 66.4933C128.056 66.1322 129.058 65.7716 130.14 65.4107L131.503 58.5574H131.142C129.419 59.7594 127.214 60.8416 124.569 61.8037C122.405 62.6454 120.201 63.1263 118.076 63.2465C117.755 63.2465 117.354 63.2465 116.995 63.2465C113.467 63.2465 110.742 62.3646 108.818 60.5614C106.854 58.7176 105.932 56.2726 105.932 53.1065C105.932 52.5853 105.932 51.9843 105.972 51.3828C106.012 50.7414 106.132 50.1002 106.293 49.4188H118.076H133.948C134.349 47.495 134.669 45.8114 134.87 44.3688C135.03 42.9261 135.15 41.8039 135.15 41.1621C135.15 37.3549 133.988 34.349 131.743 32.2646C129.459 30.1004 126.212 29.0581 122.004 29.0581Z" fill="#181A1B"/>
<path d="M205.29 43.1265C205.211 43.6071 205.171 44.1283 205.05 44.8096H194.469H183.567C184.489 41.5634 186.132 38.9582 188.617 36.9942C190.341 35.5513 192.305 34.6694 194.469 34.2286C195.311 34.0682 196.192 34.0282 197.074 34.0282C199.961 34.0282 202.084 34.7096 203.367 36.0322C204.689 37.3951 205.332 39.2786 205.332 41.6433C205.332 42.1643 205.332 42.6856 205.29 43.1265ZM198.396 29.0581C197.034 29.0581 195.711 29.1382 194.469 29.3387C189.74 30.1803 185.691 32.545 182.205 36.4329C177.956 41.3227 175.752 47.2546 175.752 54.1486C175.752 58.8379 177.234 62.4449 180.16 64.8497C183.086 67.3349 187.215 68.5374 192.385 68.5374C193.147 68.5374 193.828 68.4969 194.469 68.4969C195.19 68.4571 195.872 68.3768 196.433 68.2969C197.515 68.056 198.757 67.8555 200.121 67.4951C201.563 67.1743 202.645 66.8137 203.607 66.4933C204.489 66.1322 205.49 65.7716 206.573 65.4107L207.937 58.5574H207.574C205.851 59.7594 203.646 60.8416 201.002 61.8037C198.757 62.6454 196.593 63.1263 194.469 63.2465C194.068 63.2465 193.788 63.2465 193.387 63.2465C189.9 63.2465 187.134 62.3646 185.21 60.5614C183.246 58.7176 182.325 56.2726 182.325 53.1065C182.325 52.5853 182.325 51.9843 182.365 51.3828C182.405 50.7414 182.525 50.1002 182.685 49.4188H194.469H210.381C210.782 47.495 211.101 45.8114 211.262 44.3688C211.464 42.9261 211.583 41.8039 211.583 41.1621C211.583 37.3549 210.421 34.349 208.177 32.2646C205.893 30.1004 202.645 29.0581 198.396 29.0581Z" fill="#181A1B"/>
<path d="M243.087 51.3829C242.484 53.6675 241.523 55.7917 240.321 57.5552C239.118 59.3991 237.595 60.8417 235.833 61.8841C234.869 62.445 233.788 62.886 232.706 63.1265C231.784 63.3269 230.902 63.4474 229.98 63.4474C227.214 63.4474 225.091 62.6054 223.608 60.922C222.085 59.3186 221.363 56.8738 221.363 53.7876C221.363 51.2628 221.684 48.7777 222.285 46.373C222.965 44.0083 223.929 41.9642 225.13 40.1604C226.373 38.3568 227.856 36.914 229.579 35.8721C230.541 35.3109 231.584 34.8699 232.706 34.6292C233.586 34.4692 234.468 34.3491 235.43 34.3491C238.156 34.3491 240.28 35.1505 241.804 36.7538C243.327 38.3568 244.049 40.7619 244.049 43.928C244.049 46.4931 243.727 49.0182 243.087 51.3829ZM236.433 29.0582C235.15 29.0582 233.907 29.1383 232.706 29.3388C230.902 29.7399 229.179 30.3007 227.535 31.1023C224.851 32.465 222.604 34.3084 220.721 36.5932C218.837 38.9583 217.354 41.6434 216.311 44.73C215.31 47.8157 214.789 50.9822 214.789 54.3489C214.789 58.838 216.032 62.3647 218.516 64.8498C221.042 67.4549 224.49 68.6973 228.979 68.6973C230.261 68.6973 231.542 68.6174 232.706 68.4572C234.589 68.1364 236.312 67.5352 237.916 66.6938C240.482 65.4108 242.726 63.4875 244.689 61.1224C246.572 58.838 248.055 56.1523 249.017 53.0662C250.1 49.9401 250.621 46.7336 250.621 43.3667C250.621 38.7575 249.338 35.2306 246.775 32.786C244.209 30.3007 240.801 29.0582 236.433 29.0582Z" fill="#181A1B"/>
<path d="M256.632 26.8938H255.752V25.7312H256.432C256.513 25.7312 256.553 25.7312 256.553 25.7312C256.914 25.7312 257.314 25.7719 257.314 26.2525C257.314 26.7737 257.074 26.8938 256.632 26.8938ZM258.397 26.373C258.397 25.2506 257.715 24.9298 256.553 24.9298C256.553 24.9298 256.553 24.9298 256.513 24.9298H254.83V29.6594H255.752V27.6956H256.232L256.553 28.2565L257.275 29.6594H258.437L257.275 27.5751C257.875 27.5751 258.397 27.2543 258.397 26.373Z" fill="#181A1B"/>
<path d="M256.553 30.6613C256.553 30.7416 256.513 30.7416 256.513 30.7416V30.6613C254.83 30.7416 253.466 29.3386 253.466 27.2943C253.466 25.2506 254.83 23.8878 256.513 23.8878H256.553C258.157 23.928 259.479 25.3305 259.479 27.2943C259.479 29.2986 258.157 30.6613 256.553 30.6613ZM256.553 22.8862H256.513C254.227 22.8862 252.225 24.5292 252.225 27.2943C252.225 30.1004 254.227 31.7037 256.513 31.7037H256.553C258.758 31.6631 260.762 30.0601 260.762 27.2943C260.762 24.5292 258.758 22.9659 256.553 22.8862Z" fill="#181A1B"/>
</svg>
