<?xml version="1.0" encoding="UTF-8" standalone="no"?>
<svg
   height="19"
   version="1.1"
   viewBox="0 0 101 19"
   width="101"
   id="svg1"
   xml:space="preserve"
   xmlns="http://www.w3.org/2000/svg"
   xmlns:svg="http://www.w3.org/2000/svg"
   xmlns:rdf="http://www.w3.org/1999/02/22-rdf-syntax-ns#"
   xmlns:cc="http://creativecommons.org/ns#"
   xmlns:dc="http://purl.org/dc/elements/1.1/"><defs
     id="defs1" /><title
     id="title1">Logo_Genetec_RGB_COLOR_TM</title><g
     fill="#FFFFFF"
     fill-rule="nonzero"
     id="Genetec-Nav-1-Desktop-@2x"
     transform="translate(-131,-37)"
     style="fill:#005197;fill-opacity:1;stroke:none;stroke-width:1"><g
       id="Logo_Genetec_RGB_COLOR_TM"
       transform="translate(131,37)"
       style="fill:#005197;fill-opacity:1"><path
         d="m 92.876254,12.006689 c -0.167224,1.237458 -0.936455,2.307692 -2.240802,2.809365 -2.073579,0.802675 -4.147158,-0.367893 -4.983278,-2.474917 -0.301003,-0.702341 -0.401338,-1.438127 -0.334448,-2.140468 l -7.658863,3.010033 c -0.367893,0.668897 -1.003345,1.237459 -1.87291,1.571907 -1.638796,0.635451 -3.277592,0.06689 -4.280936,-1.237458 L 87.558528,7.2240803 c 0.501673,-0.2006689 0.9699,-0.2341137 1.337793,-0.2675586 1.438127,0 2.70903,0.8695653 3.444816,2.2408027 L 95.919732,7.7926421 C 94.682274,5.2508361 92.107023,3.5117057 89.09699,3.5117057 c -3.645485,0 -6.688963,2.5752508 -7.391304,5.9866221 C 80.9699,6.0869565 77.926421,3.5117057 74.314381,3.5117057 c -2.474916,0 -4.648829,1.1705685 -6.053511,3.0100334 V 3.9130435 H 64.949833 V 0.06688963 L 60.702341,1.8060201 V 9.5652174 C 60.06689,6.2541806 56.989967,3.5785953 53.311037,3.5785953 c -3.846154,0 -7.023412,2.8762542 -7.491639,6.5886287 V 9.2976589 c 0,-3.4113713 -1.939799,-5.819398 -5.284281,-5.819398 -2.541806,0 -3.444816,1.270903 -3.913043,2.0735786 V 3.9799331 H 32.64214 V 9.5317726 C 31.906354,6.1204013 28.862876,3.5785953 25.250836,3.5785953 c -3.745819,0 -6.822742,2.7090301 -7.458194,6.2541806 0,-1.270903 -0.301003,-2.4749164 -0.769231,-3.5785953 L 8.8294314,9.4648829 9.8327759,12.040134 13.812709,10.468227 c -0.06689,1.839465 -1.070234,3.444817 -2.976589,4.180602 C 8.1605351,15.685619 5.5183946,14.214047 4.4816053,11.605351 3.4448161,8.9966555 4.3478261,6.187291 7.0568562,5.1505017 8.8294314,4.4816053 10.602007,4.8829431 11.87291,5.9866221 L 15.953177,4.3812709 C 14.347826,2.3411371 11.839465,1.0367893 9.0301003,1.0367893 c -4.9163879,0 -8.86287622,3.9799331 -8.86287622,8.8294314 0,4.8829433 3.94648832,8.8294313 8.82943142,8.8294313 4.3812705,0 8.0267555,-3.210702 8.7290965,-7.424749 0.06689,4.113712 3.411372,7.424749 7.558529,7.424749 3.61204,0 6.655518,-2.541806 7.391304,-5.953177 v 5.41806 h 4.280937 c 0,0 0,-8.060201 0,-8.2608694 l -8.294315,3.2775924 c -0.367893,0.702341 -1.003344,1.304347 -1.906354,1.638796 -1.672241,0.635451 -3.311037,0.03344 -4.314381,-1.270903 0,0 15.752508,-6.1872915 15.785953,-6.2207363 0.401337,-0.1672241 0.802675,-0.2341137 1.137123,-0.2341137 2.240803,0 2.240803,2.3076923 2.240803,3.311037 v 7.759197 h 4.247492 v -6.053512 c 0.468227,3.712375 3.645485,6.588629 7.491639,6.588629 3.61204,0 6.655518,-2.541806 7.391304,-5.953177 v 5.41806 h 4.247492 V 9.9665552 l -8.294315,3.2441468 c -0.367893,0.702342 -1.003344,1.270903 -1.872909,1.571907 -1.638796,0.635451 -3.277593,0.06689 -4.280937,-1.237458 L 68.26087,6.5886288 c -0.936455,1.270903 -1.505017,2.8428093 -1.505017,4.5150502 0,4.180602 3.377926,7.558528 7.558528,7.558528 3.645485,0 6.688963,-2.575251 7.391305,-5.986622 0.735786,3.411371 3.779264,5.986622 7.391304,5.986622 3.67893,0 6.722408,-2.608695 7.424749,-6.086956 z M 21.471572,10.9699 c -0.06689,-1.5384619 0.735786,-2.9096993 2.307692,-3.511706 1.538462,-0.6020067 3.076923,-0.1337793 4.080268,1.0033445 z m 28.093645,0.03344 C 49.498328,9.4648829 50.301003,8.0602007 51.87291,7.458194 53.444816,6.8561873 54.983278,7.3578595 55.986622,8.4949833 Z M 72.842809,7.458194 c 1.571907,-0.6020067 3.110368,-0.1003345 4.113713,1.0367893 l -6.421405,2.5418057 c -0.06689,-1.5719061 0.735786,-2.9765883 2.307692,-3.578595 z"
         id="Shape"
         style="fill:#005197;fill-opacity:1" /><g
         id="Group"
         transform="translate(96.32107,1.672241)"
         style="fill:#005197;fill-opacity:1"><polygon
           id="Path"
           points="0,0 1.4381271,0 1.4381271,0.23411371 0.8361204,0.23411371 0.8361204,1.8394649 0.60200669,1.8394649 0.60200669,0.23411371 0,0.23411371 "
           style="fill:#005197;fill-opacity:1" /><polygon
           id="polygon1"
           points="2.6755853,1.4046823 2.6755853,1.4046823 3.2441472,0 3.6120401,0 3.6120401,1.8394649 3.3779264,1.8394649 3.3779264,0.33444816 3.3779264,0.33444816 2.7424749,1.8394649 2.5752508,1.8394649 1.9397993,0.33444816 1.9397993,0.33444816 1.9397993,1.8394649 1.7056856,1.8394649 1.7056856,0 2.0735786,0 "
           style="fill:#005197;fill-opacity:1" /></g></g></g><metadata
     id="metadata1"><rdf:RDF><cc:Work
         rdf:about=""><dc:title>Logo_Genetec_RGB_COLOR_TM</dc:title></cc:Work></rdf:RDF></metadata></svg>
