<?xml version="1.0" encoding="utf-8"?>
<!-- Generator: Adobe Illustrator 19.2.1, SVG Export Plug-In . SVG Version: 6.00 Build 0)  -->
<svg version="1.1" id="layer" xmlns="http://www.w3.org/2000/svg" xmlns:xlink="http://www.w3.org/1999/xlink" x="0px" y="0px"
	 viewBox="0 0 652 652" style="enable-background:new 0 0 652 652;" xml:space="preserve">
<style type="text/css">
	.st0{fill:#FFD300;}
	.st1{fill:#221E1F;}
</style>
<g>
	<g>
		<polygon class="st0" points="412.8,220 470.5,278.1 568.8,181.5 		"/>
		<polygon class="st1" points="21.7,244.7 78.7,244.7 103,341.2 126.1,244.7 180.8,244.5 180.8,393.7 147.4,393.7 147.4,285.2 
			117.1,393.7 84.5,393.7 55,284.3 55,393.7 21.7,393.7 		"/>
		<path class="st1" d="M287.1,393.8v-68.3c0-11.1-2.1-20.7-7.9-27.1c-9.7-10.7-27.2-11.9-35.5-11.9c-16.7,0-31,4.7-38.1,12.9
			c-6.9,8.1-6.9,16.9-7.1,21.7h32.9c-0.2-11.8,5.9-15.7,12.3-15.7c10.5,0,11.7,10.3,11.5,21.4c-39.5-1.9-62.6,8.5-62.6,36.9
			c0,18.4,9.9,32.2,32.4,32.2c18.8,0,25.3-9.9,29.5-16.9v14.8H287.1z M255.3,344.8c0.2,4.3,0.1,12.8-2.7,19.5
			c-3.5,8.3-9.9,9.9-13.5,9.9c-8.2,0-12.6-6.4-12.6-14.1C226.5,345.2,240.7,345,255.3,344.8"/>
		<path class="st1" d="M302.4,290h31.8l0.6,17c6.7-19.7,24.4-17.9,32.3-17.7v33.4c-4-0.4-4.9-0.6-7.3-0.6c-21,0-23.9,16.7-23.9,27.8
			v43.9h-33.4L302.4,290z"/>
		<path class="st1" d="M437.5,290.3v30.7h-22.1v30.2c0.2,12.9,0.2,18.7,13.3,18.7c2.7,0,4.4,0,8.6-0.6v24.3
			c-4.6,0.8-10.6,1.9-22.3,1.9c-27.4,0-32.9-10.3-32.9-30.3l-0.2-104h33.8v29.1H437.5z"/>
		<rect x="453.1" y="290" class="st1" width="34.2" height="103.8"/>
		<path class="st1" d="M503.8,290h33.1l0.4,15.6c4.2-7.8,11.5-18.1,30.4-18.1c33.5,0,32.7,28.8,32.7,43.1v63.1H567V334
			c0-7.3,0-22-14-22c-15.3,0-15.3,18.3-15.3,22v59.8h-33.8V290z"/>
	</g>
	<g>
		<path class="st1" d="M325.7,413.7v18.2H304v-18.2h-8.8v41h8.8v-19.1h21.7l0,14.7c0,0.9,0.2,1.7,0.6,2.3c0.4,0.6,0.8,1,1.4,1.3
			c0.5,0.3,1.1,0.5,1.8,0.6c0.6,0.1,1.2,0.2,1.7,0.2h3.4v-41H325.7z"/>
		<path class="st1" d="M497.3,454.7v-41h-8.6l-17.2,30.4L454,413.7h-8.7v41h4.5v-31.8l18.5,31.8h2.3l18-31.6v27.1
			c0,0.9,0.2,1.7,0.6,2.3c0.4,0.6,0.8,1,1.4,1.3c0.5,0.3,1.2,0.5,1.8,0.6c0.6,0.1,1.2,0.2,1.7,0.2H497.3z"/>
		<path class="st1" d="M552.4,454.7l-22-41.9h-2.6l-22.5,41.9h5.1l7-13h15.9l-2.2-4.2h-11.5l7.4-13.8l14.5,27.7
			c0.6,1.1,1.3,2,2.1,2.5c0.8,0.5,1.9,0.8,3.3,0.8H552.4z"/>
		<path class="st1" d="M598.1,413.7c-0.2,0-0.5,0-0.8,0.1c-0.3,0.1-0.6,0.2-0.9,0.3c-0.3,0.2-0.5,0.4-0.7,0.7
			c-0.2,0.3-0.3,0.7-0.3,1.2v26.4l-29.2-28.7h-5.6v41h5.1v-30.9l29.7,29.9c1.2,1.1,2.9,1,4.5,1h0.6v-41H598.1z"/>
		<path class="st1" d="M367.8,412.8h-2.6l-22.5,41.9h5.1l16.7-31l7.2,13.8h-11.6l-2.2,4.2h16l5.1,9.8c0.6,1.1,1.3,2,2.1,2.5
			c0.8,0.5,1.9,0.8,3.3,0.8h5.4L367.8,412.8z"/>
		<path class="st1" d="M406.8,417.3v15.5h4.1c0,0,4,0.1,6.7-1.4c2.6-1.5,4.5-3.5,4.5-6.5c0-3-2-5.7-4.8-6.8c0,0-1.6-0.8-4.5-0.8
			H406.8z M424.3,451.5L411.3,436h-4.5v18.7H398v-41h16.1c0,0,6.7-0.1,11,2c4.4,2.1,6.2,5.1,6.2,8.9c0,3.8-2.3,8.3-10.7,10.5
			l16.8,19.6h-6.7c0,0-1.4,0-3.1-0.5C426,453.7,424.3,451.5,424.3,451.5"/>
		<path class="st1" d="M261.8,452.2c1.1,0.4,2,0.6,3,0.6c3.2,0,5.5-2.2,5.5-5.3c0-2.8-1.8-4.9-4.2-4.9c-1.5,0-2.8,0.7-4.3,2.3V452.2
			z M260.5,435.6h1.3v7.9c1.3-1.2,2.5-1.9,4.4-1.9c3.2,0,5.5,2.4,5.5,5.8c0,4-2.7,6.6-6.9,6.6c-1.5,0-2.7-0.3-4.3-0.9V435.6z"/>
		<polygon class="st1" points="275.7,459.9 274.4,459.9 278.7,451.5 273.5,441.8 274.9,441.8 279.3,450.2 283.6,441.8 284.9,441.8 
					"/>
	</g>
	<g>
		<g>
			<g>
				<path class="st1" d="M613,293.7c0.9,0,1.5,0,2.1,0.2c1.1,0.4,1.5,1.3,1.5,2.2c0,1.6-1.4,2-1.7,2.1c0.5,0.3,0.9,0.5,1.1,1.8
					c0.2,1.1,0.3,2,0.7,2.7h-2.2c-0.3-0.6-0.4-1.2-0.5-2c-0.2-1.7-0.3-1.9-1.9-2h-0.5v3.9H610v-9H613z M611.8,297.3h1.1
					c0.7,0,1.8,0,1.8-1.1c0-0.3-0.1-0.7-0.6-0.9c-0.3-0.1-0.4-0.1-1.5-0.1h-0.9V297.3z"/>
			</g>
			<path class="st1" d="M613.3,306.8c-4.6,0-8.4-3.8-8.4-8.4s3.8-8.4,8.4-8.4c4.6,0,8.4,3.8,8.4,8.4S617.9,306.8,613.3,306.8z
				 M613.3,291.5c-3.8,0-6.9,3.1-6.9,6.9s3.1,6.9,6.9,6.9c3.8,0,6.9-3.1,6.9-6.9S617.1,291.5,613.3,291.5z"/>
		</g>
	</g>
</g>
</svg>
