<svg width="133" height="30" viewBox="0 0 133 30" fill="none" xmlns="http://www.w3.org/2000/svg">
<path fill-rule="evenodd" clip-rule="evenodd" d="M108.025 7.01286L108.034 11.9634L113.042 12.0145L113.005 28.9735L118.984 29.0105L118.973 12.0278L123.974 11.9904L124.014 7.04198L108.025 7.01286ZM62.0533 7.01728L75.2973 7.06944C77.3021 7.06944 78.8407 8.21483 78.8701 10.0223V25.9321C78.8701 28.3298 77.3021 28.9172 75.2973 28.9172L62.0701 28.9011L62.0533 7.01728ZM71.4602 23.5959C72.0186 23.5959 72.5119 23.168 72.5119 22.1581L72.5257 13.7941C72.5257 12.9738 71.7558 11.9426 71.0022 11.9426L69.0325 11.972L69.0576 23.8953L71.4602 23.5959ZM90.5405 24.1814C91.2416 24.196 91.2605 23.1954 91.2605 22.6919C91.2605 22.6919 91.1637 15.9522 91.0589 7.0768L96.9387 7.01109L97.0156 24.474C97.0156 24.474 97.066 28.9436 93.2016 28.9436L85.6985 28.9844C85.6985 28.9844 81.2295 28.6957 81.2295 24.4435V7.17105L88.011 7.19844L87.9942 22.6919C88.0131 23.3947 88.0488 24.1897 88.8129 24.1897L90.5405 24.1814ZM100.003 28.8916L105.993 28.9448L105.953 7.03875L99.9612 7.05396L100.003 28.8916ZM32.3474 14.6048L30.1308 20.508L34.5472 20.5227L32.3474 14.6048ZM17.0579 13.4951C17.0579 14.2817 16.5302 14.9383 15.6779 14.9727L12.9693 14.9955L13.0428 4.64709L15.6779 4.67458C16.5302 4.60874 17.0213 5.33245 17.0579 6.18838V13.4951ZM41.989 6.981L49.7136 7.02746L52.9974 15.4514L53.0319 7.01392L58.9454 7.04766L59.025 28.9844H51.0421L47.6395 20.8113V28.9844L37.1039 28.9844L35.5275 25.0392L28.7117 25.0266L27.1962 28.9844H20.0419L23.9379 19.2941C22.7825 19.7438 21.7157 19.8665 20.263 19.8749L13.0094 19.9829L13.0242 28.9566L0 28.9999L0.0539734 0.0417194L19.7769 0.0784702C25.0095 0.182119 28.0936 3.08146 29.0571 7.09957L35.8118 6.98373L42.0629 22.1914L41.989 6.981Z" fill="#231F20"/>
<path d="M125.486 9.823C125.486 7.996 126.908 6.538 128.681 6.538C130.472 6.538 131.903 7.996 131.903 9.823C131.903 11.65 130.472 13.108 128.681 13.108C126.908 13.108 125.486 11.65 125.486 9.823ZM126.143 9.823C126.143 11.326 127.25 12.496 128.681 12.496C130.13 12.496 131.246 11.326 131.246 9.823C131.246 8.32 130.13 7.15 128.681 7.15C127.25 7.15 126.143 8.32 126.143 9.823ZM127.583 11.506V8.113H128.888C129.527 8.113 129.959 8.518 129.959 9.148C129.959 9.67 129.617 9.976 129.338 10.048V10.066C129.338 10.066 129.374 10.102 129.455 10.255L130.103 11.506H129.401L128.771 10.192H128.222V11.506H127.583ZM128.222 9.724H128.762C129.095 9.724 129.311 9.508 129.311 9.148C129.311 8.797 129.095 8.599 128.762 8.599H128.222V9.724Z" fill="black"/>
</svg>
