<?xml version="1.0" encoding="UTF-8" standalone="no"?>
<svg
   xmlns:svg="http://www.w3.org/2000/svg"
   xmlns="http://www.w3.org/2000/svg"
   version="1.0"
   width="626"
   height="161"
   viewBox="-0.733 -0.272 626 161"
   id="svg2"
   xml:space="preserve">
	<defs
   id="defs4">
	</defs>
	<g
   transform="matrix(0.9840009,0,0,0.9377805,6,5.99983)"
   id="g6">
		<path
   d="M 0,56.646 L 135.018,56.646 L 135.018,101.962 L 0,101.962 L 0,56.646 z M 0,45.326 L 135.018,45.326 L 135.018,0 L 0,0 L 0,45.326 z M 0,158.599 L 135.018,158.599 L 135.018,113.3 L 0,113.3 L 0,158.599 z "
   style="fill:#ff0000"
   id="path8" />
		<path
   d="M 168.759,158.599 L 210.085,158.599 L 210.085,95.669 L 210.437,95.669 L 246.112,158.599 L 295.542,158.599 L 249.628,89.271 C 271.135,89.412 291.315,73.143 291.297,42.329 C 291.313,4.246 264.753,-0.043 238.324,0 L 168.759,0 L 168.759,158.599 M 210.085,39.499 L 231.258,39.499 C 242.236,39.394 250.093,41.529 249.979,54.44 C 250.093,63.563 244.134,70.621 234.44,70.805 L 210.086,70.805 L 210.086,39.499 L 210.085,39.499 z "
   id="path10" />
		<polygon
   points="456.223,158.599 494.728,158.599 494.728,38.769 495.088,38.769 520.849,158.599 560.399,158.599 586.187,38.769 586.547,38.769 586.547,158.599 625.034,158.599 625.034,0 562.175,0 540.984,109.53 540.281,109.53 519.794,0 456.223,0 456.223,158.599 "
   id="polygon12" />
		<path
   d="M 339.653,113.634 C 339.75,114.232 339.723,114.864 339.653,115.409 C 339.723,124.717 347.44,132.293 357.574,132.407 C 362.083,132.293 367.989,130.456 374.449,124.963 L 365.317,113.634 L 351.615,97.005 C 344.839,102.481 340.515,107.236 339.653,113.634 M 420.855,113.634 C 418.939,116.737 416.917,119.848 414.887,122.502 L 442.669,158.599 L 402.925,158.599 L 392.018,143.719 C 380.997,155.435 365.071,160.823 348.793,160.717 C 328.306,160.822 302.378,146.716 302.738,121.421 C 302.738,118.723 303.054,116.13 303.801,113.634 C 307.317,97.313 321.423,85.07 334.739,76.131 C 322.83,63.694 315.702,53.455 315.755,35.763 C 315.703,10.459 341.332,0 362.856,0 C 384.24,0 406.81,8.613 406.793,33.653 C 406.811,53.042 393.407,66.155 379.371,77.888 L 399.41,102.313 C 405.193,94.825 419.229,73.529 425.074,56.654 L 425.443,105.864 C 424.02,108.15 422.473,110.901 420.855,113.634 M 363.208,29.734 C 370.222,29.91 373.474,34.014 373.386,41.432 C 373.474,46.495 370.617,51.821 361.081,59.476 C 353.127,49.571 351.51,45.484 351.615,40.711 C 351.51,33.592 356.792,29.91 363.208,29.734"
   style="fill-rule:evenodd"
   id="path14" />
	</g>
</svg>