<?xml version="1.0" encoding="utf-8"?>
<!-- Generator: Adobe Illustrator 19.2.1, SVG Export Plug-In . SVG Version: 6.00 Build 0)  -->
<svg version="1.1" id="layer" xmlns="http://www.w3.org/2000/svg" xmlns:xlink="http://www.w3.org/1999/xlink" x="0px" y="0px"
	 viewBox="0 0 652 652" style="enable-background:new 0 0 652 652;" xml:space="preserve">
<style type="text/css">
	.st0{fill:#0065AC;}
</style>
<g>
	<path class="st0" d="M29.6,269.3h23.5l3.8-12.4l32-8.3l-6.6,20.7h24.8l-4.5,14.4H77.9c0,0-8.7,27.1-10.1,31.6
		c-1.1,3.5,0.4,6.1,3.7,6.1h19.2l-4.6,14.4H56c-12.7,0-21.6-7.9-17.5-20.6c3.5-10.7,10-31.5,10-31.5H25.1L29.6,269.3z"/>
	<path class="st0" d="M118.1,269.3h29.4c0,0-13.5,42.7-14.5,45.7c-1.3,4,0.6,6.3,3.7,6.3h20.8l16.5-52h29.1l-30.1,95h-29.1l9-28.5
		H121c-12.8,0-21.6-7.9-17.5-20.6C107.1,304.5,118.1,269.3,118.1,269.3"/>
	<path class="st0" d="M387.1,323.1c-2.4,7.7-7.7,12.7-17.3,12.7h-51.2c-12.8,0-21.3-7.8-17.5-20.6c3.2-10.7,10.8-34,10.8-34
		c2.8-8.2,9.2-11.9,16.3-11.9c0,0,45,0,52,0c12.7,0,21.6,7.9,17.5,20.6C394.1,300.6,387.1,323.1,387.1,323.1 M369.2,288.4
		c1-3.1-0.6-4.7-3-4.7h-22.6c-2.8,0-3.9,0.9-4.9,4c-0.2,0.7-8.8,27.6-9.2,29c-1,3.1,0.6,4.7,3,4.7h22.6c2.8,0,3.9-0.9,4.9-4
		C360.2,316.5,368.9,289.3,369.2,288.4"/>
	<path class="st0" d="M261.5,310.8c-1.2,3.6-2,6.3-2.1,6.6c-1,3.1-2.2,4-4.9,4h-21.1c-2.4,0-3.9-1.6-2.9-4.7c0.4-1.4,9-28.3,9.2-29
		c1-3.1,2.1-4,4.9-4h21.1c2.4,0,3.9,1.6,2.9,4.7c-0.1,0.3-0.8,2.6-1.9,5.8h28.9c0.5-1.5,0.9-3,1.4-4.3c4.1-12.7-4.7-20.6-17.5-20.6
		c-6.9,0-50.5,0-50.5,0c-7.1,0-13.5,3.7-16.3,11.9c0,0-7.6,23.3-10.8,34c-3.9,12.8,4.7,20.6,17.5,20.6h49.7c9.7,0,14.9-5,17.3-12.7
		c0,0,1.7-5.5,3.9-12.4H261.5z"/>
	<path class="st0" d="M214.5,368c0.5-3.7-1.2-5.5-5.1-5.5c-3,0-6.4,1.5-7.1,4.7c-0.9,3.9,2.7,4.4,5.8,5.1c5.5,1.4,13.7,3,12.1,10.3
		c-2,9-11,12.2-19.2,12.2c-8.7,0-14.2-3.2-11.9-12.4h8.4c-1.2,4,0.6,6.8,4.9,6.8c3.3,0,7.8-1,8.7-4.9c0.9-4.3-4.4-4.6-7.5-5.4
		c-5.1-1.3-11.9-3.6-10.4-10.1c1.9-8.3,10.7-12,18.6-12c7.4,0,12.3,3.8,10.7,11.2H214.5z"/>
	<path class="st0" d="M232.3,383.4c-0.7,3.3-0.9,6.4,3.1,6.4c2.7,0,4.3-1,5.6-3.3h7.2c-2.1,6.3-7.7,8.3-13.9,8.3
		c-9.1,0-11.7-4.9-9.8-13.4c1.7-7.6,7.7-13.5,15.8-13.5c5,0,8.7,1.6,10,6.1c0.4,1.4,0.5,2.9,0.3,4.5c-0.1,1.6-0.5,3.2-0.9,4.8H232.3
		z M242.6,378.3c0.6-2.8,0.4-5.4-3.5-5.4c-3.7,0-5,2.6-5.7,5.4H242.6z"/>
	<path class="st0" d="M269.6,377.6c0.4-2.1,0.1-4.6-3-4.6c-3.4,0-4.8,6.1-5.3,8c-0.3,2.3-1.7,8.7,1.7,8.7c3.1,0,4.6-2.9,5.1-4.9h7.7
		c-1.7,6.5-6.7,10-14,10c-7.9,0-10.4-6.7-8.9-13.4c1.5-6.7,7-13.4,14.9-13.4c6.8,0,11,3.7,9.6,9.7H269.6z"/>
	<path class="st0" d="M295.7,390.9c-2.2,2.3-5,3.9-9.1,3.9c-2.7,0-7.4-1.9-7.5-5.6c-0.1-1.6,0.2-3.2,0.4-4l3.7-16.5h7.9l-3.4,15.2
		c-0.6,2.7-0.5,5.9,3.5,5.9c2.5,0,5.1-2.2,6.1-5.9l3.4-15.2h7.9l-4.6,20.8c-0.3,1.5-0.5,3-0.7,4.6h-7.9L295.7,390.9z"/>
	<path class="st0" d="M321.8,368.7l-0.9,4.6h0.1c2.6-4,6.2-5,10.1-4.9l-1.5,6.7h-3.4c-1.3,0.1-3.2,0.8-4.3,1.9
		c-1.2,1.4-1.6,2.8-2.1,4.5l-2.8,12.6h-7.9l4.5-20.3c0.2-1.1,0.5-3.2,0.9-5.1H321.8z"/>
	<path class="st0" d="M343.2,368.7l-5.6,25.4h-7.9l5.6-25.4H343.2z M345.9,357.6l-1.4,6.5H336l1.4-6.5H345.9z"/>
	<path class="st0" d="M351.4,368.7l1.1-5l8.5-2.7l-1.7,7.7h6l-1.1,5.1h-6l-2.6,11.8c-0.7,3.3-0.4,4.2,2.3,4.2c0.9,0,1.7-0.1,2.6-0.2
		l-1,4.4c-1,0.4-5.3,0.8-6.4,0.8c-6.2,0-6.8-3.1-5.6-8.6l2.8-12.5h-5.3l1.1-5.1H351.4z"/>
	<polygon class="st0" points="387.1,368.7 394.9,368.7 373.8,403.7 365.9,403.7 371.4,394.1 366.8,368.7 375.3,368.7 377.2,386.2 
		377.3,386.2 	"/>
	<path class="st0" d="M406.9,394l8.1-36.5h11.8c8.5,0,15.2,2,13.1,11.2c-1.5,6.6-7.2,11-15.7,11.2h-6l-3.1,14H406.9z M419.6,373.9
		c4.6-0.2,10.2,1.3,11.6-5.2c1.4-6.5-4.8-5-9.3-5.2L419.6,373.9z"/>
	<path class="st0" d="M451,368.7l-0.9,4.6h0.1c2.6-4,6.2-5,10.1-4.9l-1.5,6.7h-3.4c-1.4,0.1-3.2,0.8-4.3,1.9
		c-1.2,1.4-1.6,2.8-2.1,4.5l-2.8,12.6h-7.9l4.5-20.3c0.2-1.1,0.6-3.2,0.9-5.1H451z"/>
	<path class="st0" d="M471.4,394.8c-8.7,0-12.7-5.5-10.9-13.4c1.8-8,8.2-13.4,16.9-13.4c8.7,0,12.6,5.4,10.9,13.4
		C486.5,389.3,480.1,394.8,471.4,394.8 M472.5,389.7c4.9,0,6.6-4.3,7.5-8.4c0.9-4,1.1-8.4-3.8-8.4c-4.9,0-6.6,4.4-7.5,8.4
		C467.9,385.4,467.7,389.7,472.5,389.7"/>
	<path class="st0" d="M517.1,357.6h7.9l-7,31.4c-0.4,1.7-0.6,3.4-0.9,5h-7.9c0.2-1.2,0.3-2.4,0.6-3.6h-0.1c-2.4,3-5.7,4.3-9.1,4.3
		c-7.8,0-9.9-6.9-8.4-13.4c1.5-6.8,7.2-13.4,15.4-13.4c2.7,0,5.3,1.6,6.3,3.7h0.1L517.1,357.6z M504.2,389.7c4.3,0,6.8-4.9,7.6-8.4
		c0.8-3.5,0.4-8.4-3.8-8.4c-5.1,0-6.7,4.5-7.6,8.4C499.5,385.2,499.1,389.7,504.2,389.7"/>
	<path class="st0" d="M540.5,390.9c-2.2,2.3-5.1,3.9-9.1,3.9c-2.7,0-7.4-1.9-7.5-5.6c-0.1-1.6,0.2-3.2,0.4-4l3.7-16.5h7.9l-3.4,15.2
		c-0.6,2.7-0.5,5.9,3.5,5.9c2.5,0,5.1-2.2,6.1-5.9l3.4-15.2h7.9l-4.6,20.8c-0.3,1.5-0.5,3-0.7,4.6h-7.9L540.5,390.9z"/>
	<path class="st0" d="M572,377.6c0.4-2.1,0.1-4.6-3-4.6c-3.4,0-4.8,6.1-5.3,8c-0.3,2.3-1.7,8.7,1.7,8.7c3.1,0,4.6-2.9,5.1-4.9h7.7
		c-1.7,6.5-6.7,10-14,10c-7.9,0-10.4-6.7-8.9-13.4c1.5-6.7,7-13.4,14.8-13.4c6.8,0,11,3.7,9.6,9.7H572z"/>
	<path class="st0" d="M587.8,368.7l1.1-5l8.6-2.7l-1.7,7.7h6l-1.1,5.1h-6l-2.6,11.8c-0.7,3.3-0.4,4.2,2.3,4.2c0.9,0,1.7-0.1,2.6-0.2
		l-1,4.4c-1,0.4-5.3,0.8-6.4,0.8c-6.2,0-6.8-3.1-5.6-8.6l2.8-12.5h-5.3l1.1-5.1H587.8z"/>
	<path class="st0" d="M617.8,375.4c0.3-1.7-1.2-2.5-3-2.5c-2.2,0-3.3,0.6-3.7,2.3c-0.9,4,14.8,1.7,12.7,11.2
		c-1.2,5.6-8.9,8.3-13.9,8.3c-6.2,0-11.1-2.3-9.9-8.1h7.4c-0.3,2,1.3,3.1,3.7,3.1c2.2,0,4-0.9,4.4-2.8c0.4-2-3.2-2.9-4.7-3.2
		c-4.8-1.2-9.3-2.2-8-8.1c1.2-5.3,8.4-7.6,13.1-7.6c5.6,0,10,1.9,9.1,7.5H617.8z"/>
</g>
</svg>
