<?xml version="1.0" encoding="utf-8"?>
<!-- Generator: Adobe Illustrator 19.2.1, SVG Export Plug-In . SVG Version: 6.00 Build 0)  -->
<svg version="1.1" id="layer" xmlns="http://www.w3.org/2000/svg" xmlns:xlink="http://www.w3.org/1999/xlink" x="0px" y="0px"
	 viewBox="0 0 652 652" style="enable-background:new 0 0 652 652;" xml:space="preserve">
<style type="text/css">
	.st0{fill:#221E1F;}
	.st1{clip-path:url(#SVGID_1_);fill:url(#SVGID_2_);}
	.st2{clip-path:url(#SVGID_3_);fill:url(#SVGID_4_);}
	.st3{clip-path:url(#SVGID_5_);fill:url(#SVGID_6_);}
	.st4{clip-path:url(#SVGID_7_);fill:url(#SVGID_8_);}
	.st5{clip-path:url(#SVGID_9_);fill:url(#SVGID_10_);}
	.st6{clip-path:url(#SVGID_11_);fill-rule:evenodd;clip-rule:evenodd;fill:url(#SVGID_12_);}
	.st7{clip-path:url(#SVGID_13_);fill:url(#SVGID_14_);}
	.st8{clip-path:url(#SVGID_15_);fill:url(#SVGID_16_);}
	.st9{clip-path:url(#SVGID_17_);fill:url(#SVGID_18_);}
	.st10{clip-path:url(#SVGID_19_);fill:url(#SVGID_20_);}
	.st11{clip-path:url(#SVGID_21_);fill-rule:evenodd;clip-rule:evenodd;fill:url(#SVGID_22_);}
	.st12{fill-rule:evenodd;clip-rule:evenodd;fill:#6C6E70;}
	.st13{fill-rule:evenodd;clip-rule:evenodd;fill:#FFFFFF;}
	.st14{fill-rule:evenodd;clip-rule:evenodd;fill:#A6A8AB;}
	.st15{clip-path:url(#SVGID_23_);fill:url(#SVGID_24_);}
	.st16{fill:#6D6F71;}
	.st17{fill:#FFFFFF;}
	.st18{clip-path:url(#SVGID_25_);fill:url(#SVGID_26_);}
	.st19{clip-path:url(#SVGID_27_);fill:url(#SVGID_28_);}
	.st20{fill:#95B1DC;}
	.st21{fill:#6894CD;}
	.st22{fill:#F0F0F1;}
	.st23{fill:#A6A8AB;}
	.st24{fill:#4F87C6;}
	.st25{fill:#C6D3EC;}
</style>
<g>
	<g>
		<g>
			<g>
				<g>
					<g>
						<path class="st0" d="M450.5,418.1h-28.7c-2.9,0-4.1,1.2-4.3,3.4l-3.6,30.8c-0.2,2.3,0.7,3.4,3.5,3.4h29.1l-0.4,4.6h-38.2
							c-11.2,0-15-5-14.1-13l2.9-21.1c0.9-7.9,6-13,17.1-13h37.4L450.5,418.1z"/>
						<path class="st0" d="M457.3,460.3l5.1-47.1h41.1l-0.5,4.8h-16.5c-3.1,0-4.3,1-4.6,3.4l-4.2,38.8H457.3z"/>
						<path class="st0" d="M575.7,447.5c-0.8,7.9-5.8,13-16.7,13h-37.7c-10.9,0-14.7-5-13.9-13l2.5-21.3c0.8-7.9,5.9-13,16.8-13
							h37.7c10.9,0,14.7,5,13.9,13L575.7,447.5z M555.1,418h-20.9c-2.8,0-4,1.2-4.2,3.4l-3.1,30.9c-0.2,2.2,0.7,3.4,3.5,3.4h21
							c2.8,0,4-1.2,4.2-3.4l3.1-30.9C558.7,419.2,557.8,418,555.1,418z"/>
						<path class="st0" d="M757.6,413.2c9.9,0,15,4.2,13.9,13.1l-3.6,34.2h-20.6l4.5-38.8c0.2-2.4-0.8-3.4-3.8-3.4h-18.9
							c-3.1,0-4.3,1-4.6,3.4l-4,38.9h-20.9l5.1-47.5L757.6,413.2z"/>
						<path class="st0" d="M689.2,447.4c-1,8.9-7,13.1-17,13.1h-71.6c-9.9,0-15-4.2-13.9-13.1l3.9-34.1h20.1l-4.3,38.9
							c-0.2,2.4,0.8,3.4,3.8,3.4h12.9c3.1,0,4.3-1,4.6-3.4l4.1-39h20.3l-4,38.8c-0.3,2.5,0.7,3.4,3.8,3.4h12.3c3,0,3.3-1.1,3.6-3.4
							l4.2-38.8H693L689.2,447.4z"/>
					</g>
				</g>
			</g>
			<g>
				<path class="st0" d="M775,419c0-3.4,2.7-5.8,5.9-5.8c3.2,0,5.9,2.5,5.9,5.8c0,3.4-2.7,5.8-5.9,5.8
					C777.7,424.9,775,422.4,775,419 M780.9,423.9c2.6,0,4.7-2.1,4.7-4.9c0-2.8-2.1-4.8-4.7-4.8c-2.7,0-4.8,2.1-4.8,4.8
					C776.1,421.8,778.2,423.9,780.9,423.9 M779.7,422.4h-1v-6.7h2.6c1.6,0,2.4,0.6,2.4,1.9c0,1.2-0.8,1.7-1.8,1.9l1.9,2.9h-1.2
					l-1.8-2.9h-1.2V422.4z M780.9,418.6c0.9,0,1.6-0.1,1.6-1.1c0-0.8-0.8-1-1.5-1h-1.4v2.1H780.9z"/>
			</g>
			<g>
				<path class="st0" d="M509.9,474.2v12.6h-15.1v-12.6h-6.1v28.5h6.1v-13.3h15.1l0,10.2c0,0.6,0.1,1.2,0.4,1.6
					c0.3,0.4,0.6,0.7,1,0.9c0.4,0.2,0.8,0.4,1.2,0.4c0.4,0.1,0.8,0.1,1.2,0.1h2.3v-28.5H509.9z"/>
				<path class="st0" d="M629,502.7v-28.5h-6l-11.9,21.1L599,474.2h-6v28.5h3.1v-22.1l12.8,22.1h1.6l12.5-21.9v18.8
					c0,0.6,0.1,1.2,0.4,1.6c0.3,0.4,0.6,0.7,1,0.9c0.4,0.2,0.8,0.4,1.2,0.4c0.4,0.1,0.8,0.1,1.2,0.1H629z"/>
				<path class="st0" d="M667.2,502.7L652,473.6h-1.8l-15.6,29.1h3.6l4.8-9.1h11.1l-1.5-2.9h-8l5.1-9.6l10.1,19.3
					c0.4,0.8,0.9,1.4,1.5,1.7c0.6,0.4,1.4,0.5,2.3,0.5H667.2z"/>
				<path class="st0" d="M699,474.2c-0.2,0-0.3,0-0.6,0c-0.2,0-0.4,0.1-0.6,0.2c-0.2,0.1-0.4,0.3-0.5,0.5c-0.1,0.2-0.2,0.5-0.2,0.8
					v18.4l-20.3-19.9h-3.9v28.5h3.6v-21.5l20.6,20.8c0.8,0.8,2,0.7,3.1,0.7h0.4v-28.5H699z"/>
				<path class="st0" d="M539.1,473.6h-1.8l-15.6,29.1h3.6l11.6-21.5l5,9.6h-8l-1.5,2.9h11.1l3.5,6.8c0.4,0.8,0.9,1.4,1.5,1.7
					c0.6,0.4,1.4,0.5,2.3,0.5h3.7L539.1,473.6z"/>
				<path class="st0" d="M566.2,476.7v10.8h2.8c0,0,2.8,0,4.6-1c1.8-1,3.1-2.4,3.1-4.5c0-2.1-1.4-4-3.4-4.7c0,0-1.1-0.5-3.1-0.5
					H566.2z M578.3,500.4l-9-10.7h-3.1v13h-6.1v-28.5h11.2c0,0,4.6-0.1,7.6,1.4c3,1.5,4.3,3.5,4.3,6.2c0,2.6-1.6,5.7-7.4,7.3
					l11.6,13.6h-4.7c0,0-1,0-2.1-0.4C579.5,501.9,578.3,500.4,578.3,500.4"/>
				<path class="st0" d="M465.5,500.9c0.8,0.3,1.4,0.4,2.1,0.4c2.2,0,3.8-1.5,3.8-3.7c0-2-1.2-3.4-2.9-3.4c-1.1,0-1.9,0.5-3,1.6
					V500.9z M464.6,489.4h0.9v5.5c0.9-0.9,1.7-1.4,3.1-1.4c2.2,0,3.8,1.7,3.8,4.1c0,2.8-1.9,4.6-4.8,4.6c-1,0-1.9-0.2-3-0.6V489.4z"
					/>
				<polygon class="st0" points="475.2,506.3 474.2,506.3 477.2,500.4 473.6,493.7 474.6,493.7 477.7,499.5 480.6,493.7 
					481.6,493.7 				"/>
			</g>
		</g>
	</g>
</g>
<g>
	<g>
		<g>
			<g>
				<g>
					<defs>
						<ellipse id="SVGID_98_" cx="276.8" cy="432.1" rx="90" ry="90"/>
					</defs>
					<clipPath id="SVGID_1_">
						<use xlink:href="#SVGID_98_"  style="overflow:visible;"/>
					</clipPath>
					<linearGradient id="SVGID_2_" gradientUnits="userSpaceOnUse" x1="228.6172" y1="355.2925" x2="324.5552" y2="508.8254">
						<stop  offset="0.1656" style="stop-color:#6894CD"/>
						<stop  offset="0.2948" style="stop-color:#317EC0"/>
						<stop  offset="0.3946" style="stop-color:#0E70B8"/>
						<stop  offset="0.4479" style="stop-color:#006BB5"/>
						<stop  offset="0.7423" style="stop-color:#FFFFFF"/>
					</linearGradient>
					<polygon class="st1" points="401.3,460.8 389.3,441.5 377.8,423.1 377.8,423.1 377,421.9 376.3,420.8 375.5,419.6 374.8,418.4 
						374.1,417.2 373.3,416 372.6,414.9 371.9,413.7 371.1,412.5 370.4,411.3 369.7,410.2 368.9,409 368.2,407.8 367.5,406.6 
						366.7,405.5 366,404.3 365.2,403.1 364.5,401.9 363.8,400.7 363,399.6 362.3,398.4 361.6,397.2 360.8,396 360.1,394.9 
						359.4,393.7 358.6,392.5 357.9,391.3 357.2,390.2 356.4,389 355.7,387.8 355,386.6 354.2,385.5 353.5,384.3 352.8,383.1 
						352.3,382.4 349.2,377.5 345.9,372.2 342.6,366.8 339.3,361.5 336.5,357.1 336.5,357.1 335,354.6 333.5,352.2 331.9,349.8 
						330.4,347.3 328.9,344.9 327.4,342.5 325.9,340.1 324.3,337.6 322.8,335.2 321.3,332.8 319.8,330.3 318.4,328.2 312.1,318 
						305.4,307.3 151.9,403.2 151.9,403.3 151.8,403.3 165.2,424.7 165.2,424.7 182.4,452.2 182.4,452.2 198.5,477.9 198.5,477.9 
						224.2,519.1 224.2,519.1 247.8,556.8 401.3,460.9 401.3,460.9 					"/>
				</g>
				<g>
					<defs>
						<path id="SVGID_97_" d="M190.4,432.1c0-47.7,38.7-86.4,86.4-86.4c47.7,0,86.4,38.7,86.4,86.4c0,47.7-38.7,86.4-86.4,86.4
							C229.1,518.4,190.4,479.8,190.4,432.1z"/>
					</defs>
					<clipPath id="SVGID_3_">
						<use xlink:href="#SVGID_97_"  style="overflow:visible;"/>
					</clipPath>
					
						<radialGradient id="SVGID_4_" cx="296.617" cy="511.0611" r="136.8531" gradientTransform="matrix(0.9613 0 0 0.9613 -22.2744 -89.6573)" gradientUnits="userSpaceOnUse">
						<stop  offset="0" style="stop-color:#95B1DC"/>
						<stop  offset="0.24" style="stop-color:#6AA0D3"/>
						<stop  offset="0.5954" style="stop-color:#3188C6"/>
						<stop  offset="0.8592" style="stop-color:#0E7ABE"/>
						<stop  offset="1" style="stop-color:#0074BB"/>
					</radialGradient>
					<ellipse class="st2" cx="262.9" cy="401.6" rx="131.6" ry="131.6"/>
				</g>
				<g>
					<defs>
						<path id="SVGID_96_" d="M188.7,432.1c0-48.7,39.4-88.1,88.1-88.1c48.7,0,88.1,39.5,88.1,88.1c0,48.7-39.4,88.1-88.1,88.1
							C228.1,520.2,188.7,480.7,188.7,432.1z"/>
					</defs>
					<clipPath id="SVGID_5_">
						<use xlink:href="#SVGID_96_"  style="overflow:visible;"/>
					</clipPath>
					
						<radialGradient id="SVGID_6_" cx="296.4377" cy="519.0642" r="133.3881" gradientTransform="matrix(0.9613 0 0 0.9613 -22.2744 -89.6573)" gradientUnits="userSpaceOnUse">
						<stop  offset="0" style="stop-color:#95B1DC"/>
						<stop  offset="9.292020e-002" style="stop-color:#8FAEDA"/>
						<stop  offset="0.2182" style="stop-color:#7EA6D6"/>
						<stop  offset="0.3619" style="stop-color:#6299CF"/>
						<stop  offset="0.5193" style="stop-color:#3A86C4"/>
						<stop  offset="0.6862" style="stop-color:#086FB7"/>
						<stop  offset="0.7117" style="stop-color:#006BB5"/>
					</radialGradient>
					<ellipse class="st3" cx="262.7" cy="409.3" rx="128.2" ry="128.2"/>
				</g>
				<g>
					<defs>
						<path id="SVGID_95_" d="M235.7,460.8h81c0,0,0.5,0,0.6-0.5c0.2-1.4,1.1-9.2,1.1-9.2c0.5,0.3,0.7,1,0.7,1L318,461
							c0,0-0.1,0.6-0.5,0.6c-0.9,0-81.7,0-81.7,0L235.7,460.8z"/>
					</defs>
					<clipPath id="SVGID_7_">
						<use xlink:href="#SVGID_95_"  style="overflow:visible;"/>
					</clipPath>
					<linearGradient id="SVGID_8_" gradientUnits="userSpaceOnUse" x1="238.413" y1="473.7559" x2="317.5374" y2="446.5111">
						<stop  offset="0" style="stop-color:#95B1DC"/>
						<stop  offset="0.1015" style="stop-color:#A0B8DF"/>
						<stop  offset="0.2699" style="stop-color:#ADC1E3"/>
						<stop  offset="0.3563" style="stop-color:#A8BEE2"/>
						<stop  offset="0.7047" style="stop-color:#9AB4DD"/>
						<stop  offset="1" style="stop-color:#95B1DC"/>
					</linearGradient>
					<polygon class="st4" points="321.7,460.1 313.4,434.4 273.8,447.3 273.8,447.3 257.1,452.7 257.1,452.7 234.3,460.1 
						234.3,460.1 234.2,460.1 242.6,485.9 247.4,484.3 252.1,482.8 256.9,481.2 261.6,479.7 265.4,478.5 265.4,478.5 268.9,477.3 
						272.5,476.2 276,475 279.5,473.9 283.1,472.7 283.1,472.7 301.9,466.6 321.7,460.2 321.7,460.2 					"/>
				</g>
				<g>
					<defs>
						<path id="SVGID_94_" d="M331.9,432.3c0,30.4-24.6,55-55,55c-30.4,0-55-24.6-55-55c0-30.4,24.6-55,55-55
							C307.2,377.3,331.9,401.9,331.9,432.3z M277.6,503.2c38.6,0,69.9-31.3,69.9-69.9c0-38.6-31.3-69.9-69.9-69.9
							c-38.6,0-69.9,31.3-69.9,69.9C207.7,472,239,503.2,277.6,503.2z"/>
					</defs>
					<clipPath id="SVGID_9_">
						<use xlink:href="#SVGID_94_"  style="overflow:visible;"/>
					</clipPath>
					<linearGradient id="SVGID_10_" gradientUnits="userSpaceOnUse" x1="242.8372" y1="370.7219" x2="312.2869" y2="496.0125">
						<stop  offset="0" style="stop-color:#ADC1E3"/>
						<stop  offset="0.1738" style="stop-color:#86ACD8"/>
						<stop  offset="0.5767" style="stop-color:#2E7DC0"/>
						<stop  offset="0.6991" style="stop-color:#317EC1"/>
						<stop  offset="0.8032" style="stop-color:#3C82C3"/>
						<stop  offset="0.9007" style="stop-color:#4D89C7"/>
						<stop  offset="0.9935" style="stop-color:#6693CD"/>
						<stop  offset="1" style="stop-color:#6894CD"/>
					</linearGradient>
					<polygon class="st5" points="372.8,462.5 370,457.3 369.8,456.9 369.6,456.5 368.4,454.2 368.4,454.2 368.4,454.2 368.4,454.2 
						344.8,409.8 344.8,409.8 322.2,367.3 322.2,367.3 306.7,338.1 182.3,404.3 190.3,419.3 197.8,433.4 197.8,433.4 199,435.6 
						199.3,436.1 209.1,454.6 209.7,455.8 210.9,458 211,458.2 217.9,471.2 218.1,471.4 218.2,471.7 220.4,475.9 220.4,475.9 
						224.8,484 229.6,493.1 234.4,502.2 239.2,511.2 243.5,519.4 243.5,519.4 244.5,521.2 245.5,523.1 246,524 248.4,528.6 					"/>
				</g>
				<g>
					<defs>
						<path id="SVGID_93_" d="M332,431.6c0,31.3-24.3,55.6-55.6,55.6c-30.4,0-55-25-55-55.4c0-30.4,24.5-55.2,54.9-55.2
							C306.7,376.5,332,401.2,332,431.6z M276.8,502.7c39,0,70.6-31.6,70.6-70.6c0-39-31.6-70.6-70.6-70.6
							c-39,0-70.6,31.6-70.6,70.6C206.2,471.1,237.8,502.7,276.8,502.7z"/>
					</defs>
					<clipPath id="SVGID_11_">
						<use xlink:href="#SVGID_93_"  style="overflow:visible;"/>
					</clipPath>
					<linearGradient id="SVGID_12_" gradientUnits="userSpaceOnUse" x1="234.2739" y1="372.9967" x2="320.099" y2="491.1247">
						<stop  offset="0" style="stop-color:#2E7DC0"/>
						<stop  offset="2.857864e-003" style="stop-color:#2E7DC0"/>
						<stop  offset="0.1767" style="stop-color:#1979BE"/>
						<stop  offset="0.3731" style="stop-color:#0B76BC"/>
						<stop  offset="0.6107" style="stop-color:#0374BB"/>
						<stop  offset="1" style="stop-color:#0074BB"/>
					</linearGradient>
					<polygon class="st6" points="358.9,422 341.5,399.7 324.1,377.5 306.7,355.2 289.4,333 178.1,419.9 195.5,442.1 212.9,464.4 
						230.3,486.6 247.6,508.9 265,531.1 376.3,444.2 					"/>
				</g>
				<g>
					<defs>
						<path id="SVGID_92_" d="M341.9,432.1c0,36-29.2,65.2-65.2,65.2s-65.1-29.2-65.1-65.2c0-36,29.2-65.2,65.1-65.2
							S341.9,396.1,341.9,432.1z M276.8,502c38.6,0,69.9-31.3,69.9-69.9c0-38.6-31.3-69.9-69.9-69.9c-38.6,0-69.9,31.3-69.9,69.9
							C206.9,470.7,238.2,502,276.8,502z"/>
					</defs>
					<clipPath id="SVGID_13_">
						<use xlink:href="#SVGID_92_"  style="overflow:visible;"/>
					</clipPath>
					<linearGradient id="SVGID_14_" gradientUnits="userSpaceOnUse" x1="235.1943" y1="375.3596" x2="317.9756" y2="489.2982">
						<stop  offset="0" style="stop-color:#FFFFFF"/>
						<stop  offset="7.463276e-003" style="stop-color:#FCFCFC"/>
						<stop  offset="0.1025" style="stop-color:#D6D6D7"/>
						<stop  offset="0.2049" style="stop-color:#B5B6B7"/>
						<stop  offset="0.3147" style="stop-color:#9B9C9E"/>
						<stop  offset="0.4347" style="stop-color:#86888A"/>
						<stop  offset="0.5699" style="stop-color:#787A7C"/>
						<stop  offset="0.733" style="stop-color:#707273"/>
						<stop  offset="1" style="stop-color:#6D6F71"/>
					</linearGradient>
					<polygon class="st7" points="369.5,440.4 364.1,432.9 358.6,425.5 353.2,418 347.8,410.5 342.3,403 336.9,395.5 331.5,388.1 
						326,380.6 320.6,373.1 315.1,365.6 309.7,358.1 309.7,358.1 309.1,357.3 307.9,355.6 306.7,354 305.5,352.3 304.3,350.6 
						303.1,349 301.8,347.3 300.6,345.6 299.4,344 298.2,342.3 297,340.6 295.8,339 294.6,337.3 293.4,335.6 292.2,334 178.2,416.8 
						179.4,418.4 180.6,420.1 181.9,421.8 183.1,423.4 184.3,425.1 185.5,426.7 186.7,428.4 187.9,430.1 189.1,431.7 190.3,433.4 
						191.5,435.1 192.7,436.7 194,438.4 195.2,440.1 196.4,441.7 196.4,441.7 201.2,448.4 206.6,455.9 212.1,463.3 217.5,470.8 
						223,478.3 228.4,485.8 233.8,493.3 239.3,500.8 244.7,508.2 250.1,515.7 255.6,523.2 261,530.7 374.9,447.9 					"/>
				</g>
				<g>
					<defs>
						<path id="SVGID_91_" d="M276.9,493.7c34,0,61.5-27.5,61.5-61.5c0-34-27.5-61.5-61.5-61.5c-34,0-61.5,27.5-61.5,61.5
							C215.4,466.1,242.9,493.7,276.9,493.7z M332.9,432.1c0,31-25.1,56.2-56.2,56.2s-56.2-25.1-56.2-56.2c0-31,25.1-56.2,56.2-56.2
							S332.9,401.1,332.9,432.1z"/>
					</defs>
					<clipPath id="SVGID_15_">
						<use xlink:href="#SVGID_91_"  style="overflow:visible;"/>
					</clipPath>
					<linearGradient id="SVGID_16_" gradientUnits="userSpaceOnUse" x1="232.9793" y1="387.9896" x2="320.7002" y2="475.7105">
						<stop  offset="0" style="stop-color:#808183"/>
						<stop  offset="0.2795" style="stop-color:#838485"/>
						<stop  offset="0.4501" style="stop-color:#8B8C8E"/>
						<stop  offset="0.5915" style="stop-color:#999A9C"/>
						<stop  offset="0.7171" style="stop-color:#AEAEB0"/>
						<stop  offset="0.832" style="stop-color:#C8C9CA"/>
						<stop  offset="0.9377" style="stop-color:#E8E8E9"/>
						<stop  offset="1" style="stop-color:#FFFFFF"/>
					</linearGradient>
					<polygon class="st8" points="363.3,430.6 362,429.3 360.7,428 359.4,426.7 358.1,425.4 356.8,424.1 355.6,422.8 354.3,421.6 
						353,420.3 351.7,419 350.4,417.7 349.1,416.4 347.8,415.1 346.5,413.8 346,413.3 346,413.3 338.3,405.6 330.6,397.9 
						330.6,397.9 330.6,397.9 330.6,397.9 322.9,390.2 315.3,382.6 307.6,374.9 299.9,367.2 292.2,359.5 284.5,351.8 276.8,344.1 
						189.1,431.9 189.1,431.9 189.1,431.9 258.3,501 258.3,501 276.8,519.6 276.8,519.6 364.6,431.9 					"/>
				</g>
				<g>
					<defs>
						<path id="SVGID_90_" d="M334.1,432.1c0,31.6-25.7,57.3-57.3,57.3s-57.3-25.6-57.3-57.3c0-31.6,25.6-57.3,57.3-57.3
							S334.1,400.4,334.1,432.1z M276.8,500.6c37.8,0,68.5-30.7,68.5-68.5s-30.7-68.5-68.5-68.5c-37.8,0-68.5,30.7-68.5,68.5
							S239,500.6,276.8,500.6z"/>
					</defs>
					<clipPath id="SVGID_17_">
						<use xlink:href="#SVGID_90_"  style="overflow:visible;"/>
					</clipPath>
					<linearGradient id="SVGID_18_" gradientUnits="userSpaceOnUse" x1="215.6318" y1="371.0973" x2="337.5417" y2="493.0072">
						<stop  offset="0" style="stop-color:#E5E6E7"/>
						<stop  offset="0.4062" style="stop-color:#D7D9DA"/>
						<stop  offset="0.5644" style="stop-color:#D0D2D3"/>
						<stop  offset="1" style="stop-color:#DBDCDD"/>
					</linearGradient>
					<polygon class="st9" points="370,460.6 368,457 366.2,453.6 366,453.1 364.2,449.7 362.7,447 362.7,447 330,385.4 330,385.4 
						325.4,376.8 321.1,368.7 305.1,338.7 183.2,403.5 200.6,436.3 203.5,441.6 208.6,451.2 208.6,451.2 224.9,482 240.8,511.8 
						240.8,511.8 240.8,511.8 240.8,511.8 242.3,514.5 244.2,518.2 246.1,521.8 248,525.4 248,525.4 248,525.4 					"/>
				</g>
				<g>
					<defs>
						<polygon id="SVGID_89_" points="234.6,451.3 235.7,460.9 317.3,460.9 318.5,451.2 						"/>
					</defs>
					<clipPath id="SVGID_19_">
						<use xlink:href="#SVGID_89_"  style="overflow:visible;"/>
					</clipPath>
					<linearGradient id="SVGID_20_" gradientUnits="userSpaceOnUse" x1="252.1042" y1="431.9768" x2="298.7424" y2="478.615">
						<stop  offset="0" style="stop-color:#4F87C6"/>
						<stop  offset="0.279" style="stop-color:#2E7FC1"/>
						<stop  offset="0.5516" style="stop-color:#1479BE"/>
						<stop  offset="0.7994" style="stop-color:#0575BC"/>
						<stop  offset="1" style="stop-color:#0074BB"/>
					</linearGradient>
					<polygon class="st10" points="317,450.6 312.3,445.4 307.7,440.3 303,435.1 298.4,430 293.7,424.8 289.1,419.6 284.4,414.5 
						279.8,409.3 229.2,454.8 233.9,460 238.5,465.2 243.2,470.3 247.8,475.5 252.5,480.6 257.1,485.8 261.8,491 266.4,496.1 
						271.1,501.3 321.6,455.8 					"/>
				</g>
				<g>
					<defs>
						<path id="SVGID_88_" d="M241.5,423.5l1.5,12.2h68.2l1.5-12.2l-15.3,6L277,413.7l-20.2,15.9L241.5,423.5z M255.6,417l21.4-16.5
							l21.5,16.7l25.1-12.6c0,0,0.3-0.3,0.6-0.1c0.5,0.5,0.6,1.1,0.6,1.1l-5.1,39.5h-85.6l-4.9-40.1l0.7-1L255.6,417z"/>
					</defs>
					<clipPath id="SVGID_21_">
						<use xlink:href="#SVGID_88_"  style="overflow:visible;"/>
					</clipPath>
					<linearGradient id="SVGID_22_" gradientUnits="userSpaceOnUse" x1="241.9297" y1="387.1581" x2="314.0237" y2="459.2521">
						<stop  offset="0" style="stop-color:#6894CD"/>
						<stop  offset="1" style="stop-color:#0074BB"/>
					</linearGradient>
					<polygon class="st11" points="337.9,425.8 334.1,419.9 330.3,414.1 326.5,408.3 322.7,402.4 319,396.6 315.2,390.8 
						311.4,384.9 307.6,379.1 303.8,373.3 300,367.4 296.2,361.6 214.3,414.8 218.1,420.6 221.9,426.5 225.6,432.3 229.4,438.1 
						233.2,444 237,449.8 240.8,455.6 244.6,461.5 248.4,467.3 252.2,473.1 255.9,479 259.7,484.8 341.7,431.6 					"/>
				</g>
				<g>
					<polygon class="st12" points="236.9,441.9 316.9,441.5 321.6,409.3 323.8,405.4 318.7,444.5 235.2,444.5 					"/>
					<polygon class="st13" points="321.7,408.7 297.9,420 277.2,404 255.9,420.7 233.4,408.9 237.1,441.6 235.2,444.5 230.6,405.4 
						255.7,418.3 277.1,401.6 298.5,418.3 323.8,405.4 					"/>
					<path class="st14" d="M313.5,422.3l-16,6.5L277,412.9l-20.4,15.8l-16-6.5l1.7,14.3c0,0-0.9,2-1.3,1.9
						c-0.4-0.1-2.8-19.5-2.8-19.5l18.3,7.5l20.4-16l20.9,15.9l17.6-6.9L313.5,422.3z"/>
					<polygon class="st13" points="242.3,436.6 311.8,436.6 313.5,422.3 315,420 313.2,437.9 241,438.3 					"/>
				</g>
				<g>
					<defs>
						<path id="SVGID_87_" d="M256.2,419.6l20.8-16.7l21.4,16.7l24-12.2l-4.6,36h-81.7l-4.4-36.5L256.2,419.6z M239.5,421l2,16.5
							h71.3l1.9-16.8l-17.1,7l-20.7-16l-20.5,16L239.5,421z"/>
					</defs>
					<clipPath id="SVGID_23_">
						<use xlink:href="#SVGID_87_"  style="overflow:visible;"/>
					</clipPath>
					
						<radialGradient id="SVGID_24_" cx="294.3645" cy="516.2542" r="70.5678" gradientTransform="matrix(0.9613 0 0 0.9613 -22.2744 -89.6573)" gradientUnits="userSpaceOnUse">
						<stop  offset="0" style="stop-color:#E6E7E7"/>
						<stop  offset="0.2975" style="stop-color:#E2E3E3"/>
						<stop  offset="0.6158" style="stop-color:#D5D6D7"/>
						<stop  offset="0.9428" style="stop-color:#C0C1C3"/>
						<stop  offset="1" style="stop-color:#BBBDBF"/>
					</radialGradient>
					<path class="st15" d="M192.9,406.6c0-37.5,30.4-67.8,67.8-67.8s67.8,30.4,67.8,67.8c0,37.5-30.4,67.8-67.8,67.8
						S192.9,444.1,192.9,406.6z"/>
				</g>
				<polygon class="st16" points="236.9,460.1 316.5,460.1 317.5,452.1 315.2,453.6 313.5,458.1 239.3,458 				"/>
				<polygon class="st17" points="317.5,452.1 236.1,452.1 236.9,460.1 239.7,458 239.1,454.2 315.4,453.2 				"/>
				<g>
					<defs>
						<polygon id="SVGID_86_" points="237.4,452.8 237.9,459.2 315.4,459.2 316.1,452.8 						"/>
					</defs>
					<clipPath id="SVGID_25_">
						<use xlink:href="#SVGID_86_"  style="overflow:visible;"/>
					</clipPath>
					
						<radialGradient id="SVGID_26_" cx="295.024" cy="564.2965" r="57.3441" gradientTransform="matrix(0.9613 0 0 0.9613 -22.2744 -89.6573)" gradientUnits="userSpaceOnUse">
						<stop  offset="0" style="stop-color:#D0D2D3"/>
						<stop  offset="0.4344" style="stop-color:#CCCECF"/>
						<stop  offset="0.8986" style="stop-color:#BFC1C3"/>
						<stop  offset="1" style="stop-color:#BBBDBF"/>
					</radialGradient>
					<path class="st18" d="M206.2,452.8c0-30.4,24.7-55.1,55.1-55.1s55.1,24.7,55.1,55.1c0,30.4-24.7,55.1-55.1,55.1
						S206.2,483.2,206.2,452.8z"/>
				</g>
				<g>
					<defs>
						<path id="SVGID_85_" d="M234.4,445h84.6c0.5,0,0.6-0.5,0.6-0.5l5-39.6c0,0,0.7,1.1,0.5,1.9c-0.1,0.9-4.2,33.7-4.8,38.4
							c-0.1,0.4-0.5,0.6-0.5,0.6h-85.4V445z"/>
					</defs>
					<clipPath id="SVGID_27_">
						<use xlink:href="#SVGID_85_"  style="overflow:visible;"/>
					</clipPath>
					<linearGradient id="SVGID_28_" gradientUnits="userSpaceOnUse" x1="253.6538" y1="410.6727" x2="319.6692" y2="448.7867">
						<stop  offset="0" style="stop-color:#95B1DC"/>
						<stop  offset="0.6258" style="stop-color:#ADC1E3"/>
						<stop  offset="0.705" style="stop-color:#9FB8DF"/>
						<stop  offset="0.855" style="stop-color:#79A1D3"/>
						<stop  offset="1" style="stop-color:#4F87C6"/>
					</linearGradient>
					<path class="st19" d="M325.8,405.1l-1.3-0.8l-1.3-0.8l-1.3-0.8l-0.4-0.2l0,0l-6.2-3.7l-6.1-3.7l-6.1-3.7l-6.1-3.7l-6.1-3.7v0
						l-7-4.2l-7.9-4.7l-42.5,70.7l7.9,4.7l7.9,4.8l0,0l5.3,3.2l6.1,3.7l6.1,3.7l6.1,3.7l5.3,3.2l0,0l1.3,0.8l1.3,0.8l1.3,0.8
						l1.3,0.8l1.3,0.8l42.5-70.7L325.8,405.1z M338.7,412.9l-1.3-0.8l-1.3-0.8l-1.3-0.8l-1.3-0.8l-1.3-0.8l-1.3-0.8l-2.6-1.5
						l-1.3-0.8l-42.5,70.7l1.3,0.8l1.3,0.8l1.3,0.8l1.3,0.8l2.6,1.5l1.3,0.8l1.3,0.8l1.3,0.8l1.3,0.8l42.5-70.7L338.7,412.9z"/>
				</g>
				<path class="st20" d="M226.2,410.8c1.5-3.7,3.9-7.5,3.9-7.5c-1.4,3.7-2.7,7.6-3.8,11.7c0,0-0.6,0.1-1.7,0.2
					C224.5,415.3,224.7,414.3,226.2,410.8z"/>
				<path class="st20" d="M207.5,418.5c-8.9,2-15.4,4.4-15.4,4.4c7.2-43.3,40.7-74.3,80.8-75.7c0,0-9.6,5.9-20.5,18.6l-0.2,0.1
					C229.4,374.4,212.2,394.2,207.5,418.5z"/>
				<path class="st21" d="M208.2,418.4c4.7-23.6,21.3-42.9,43.2-51.4c0.3-0.3,0.6-0.7,0.9-1.1l-0.1,0l-0.2,0.1
					c-22.7,8.5-39.9,28.3-44.6,52.6C207.8,418.5,208,418.4,208.2,418.4z"/>
				<path class="st17" d="M209.7,418c-0.1,0-0.2,0-0.3,0.1c-0.4,0.1-0.8,0.2-1.2,0.3c4.7-23.6,21.3-42.9,43.2-51.4
					c-0.6,0.8-1.2,1.5-1.9,2.3C229.4,378,214.3,396.1,209.7,418z"/>
				<path class="st22" d="M234.1,393.9c-5.6,6.2-9.8,13.6-12.2,21.8c-2.8,0.5-6.9,1.2-12.1,2.3c4.6-22,19.7-40.1,39.8-48.8
					C244.2,375.8,238.8,384,234.1,393.9z"/>
				<path class="st23" d="M232.3,397.8c-4.1,5.3-7.2,11.2-9.2,17.7c-0.4,0.1-0.8,0.1-1.3,0.2c2.4-8.2,6.7-15.6,12.3-21.8
					C233.5,395.2,232.9,396.4,232.3,397.8z"/>
				<path class="st24" d="M223.8,415.4c-0.2,0-0.4,0.1-0.7,0.1c2-6.5,5.2-12.5,9.2-17.7c-0.3,0.7-0.6,1.4-0.9,2.1
					C228.1,404.5,225.5,409.8,223.8,415.4z"/>
				<path class="st25" d="M224.5,415.3c-0.2,0-0.4,0.1-0.7,0.1c1.7-5.6,4.3-10.8,7.6-15.5c-0.5,1.1-0.9,2.3-1.4,3.5
					c0,0-2.3,3.8-3.9,7.5C224.7,414.3,224.5,415.3,224.5,415.3z"/>
			</g>
		</g>
	</g>
</g>
</svg>
