<?xml version="1.0" encoding="utf-8"?>
<!-- Generator: Adobe Illustrator 26.0.3, SVG Export Plug-In . SVG Version: 6.00 Build 0)  -->
<svg version="1.0" id="katman_1" xmlns="http://www.w3.org/2000/svg" xmlns:xlink="http://www.w3.org/1999/xlink" x="0px" y="0px"
	 viewBox="0 0 162 108" style="enable-background:new 0 0 162 108;" xml:space="preserve">
<style type="text/css">
	.st0{fill:#F78F1E;}
	.st1{fill:#221F1F;}
	.st2{fill:none;stroke:#393738;stroke-width:9.400000e-02;stroke-miterlimit:10;}
	.st3{fill:#FFFFFF;}
	.st4{fill:none;stroke:#FFFFFF;stroke-width:9.400000e-02;stroke-miterlimit:10;}
</style>
<g>
	<path class="st0" d="M95.9,22.1c0.3,0.1,0.6,0.2,0.9,0.3c-0.3,1-1,1.9-1.4,2.8c-0.4,0.7-0.8,1.4-1.2,2c0.2-0.7,0.4-1.4,0.7-2
		C95.1,24.1,95.4,23,95.9,22.1z"/>
	<path class="st0" d="M98.4,23.5c0.2,0.2,0.5,0.4,0.7,0.6c-0.6,0.8-1.3,1.4-2,2c-0.6,0.6-1.2,1.2-1.9,1.6c0.3-0.6,0.8-1.1,1.2-1.7
		C97,25.2,97.6,24.3,98.4,23.5z"/>
	<path class="st1" d="M83.8,25.2c0.2,0,0.6-0.2,0.7,0.1c0.4,0.6,0.7,1.3,1.1,1.9c0.3,0.4,0.8,0.6,1.3,0.7c1.5,0,3-0.5,4.6-0.6
		c0.7-0.1,1.1,0.9,0.6,1.3c-1.1,0.9-2.7,1.3-3.7,2.3c-0.3,0.2,0,0.6,0.2,0.8c0.8,0.9,1.7,1.7,2.4,2.6c0.2,0.3,0.6,0.7,0.4,1
		c-0.2,0.4-0.7,0.5-1.1,0.3c-1.2-0.5-2.3-1.3-3.5-1.9c-0.2-0.1-0.5-0.2-0.8-0.1c-0.2,0.1-0.3,0.4-0.4,0.6c-1.4-1.2-2.8-2.4-3.5-4
		c0.4-0.2,0.9-0.3,1-0.8c0.1-0.8-0.3-1.5-0.6-2.2c-0.2-0.5-0.8-0.2-1.2-0.3c-0.1-0.5,0.4-0.9,0.8-1.2c0.2-0.2,0.6-0.3,0.8,0
		c0.6,0.8,0.9,1.7,1.5,2.5c0.3,0,0.5-0.3,0.3-0.5C84.3,26.9,83.7,26.1,83.8,25.2z"/>
	<path class="st2" d="M83.8,25.2c0.2,0,0.6-0.2,0.7,0.1c0.4,0.6,0.7,1.3,1.1,1.9c0.3,0.4,0.8,0.6,1.3,0.7c1.5,0,3-0.5,4.6-0.6
		c0.7-0.1,1.1,0.9,0.6,1.3c-1.1,0.9-2.7,1.3-3.7,2.3c-0.3,0.2,0,0.6,0.2,0.8c0.8,0.9,1.7,1.7,2.4,2.6c0.2,0.3,0.6,0.7,0.4,1
		c-0.2,0.4-0.7,0.5-1.1,0.3c-1.2-0.5-2.3-1.3-3.5-1.9c-0.2-0.1-0.5-0.2-0.8-0.1c-0.2,0.1-0.3,0.4-0.4,0.6c-1.4-1.2-2.8-2.4-3.5-4
		c0.4-0.2,0.9-0.3,1-0.8c0.1-0.8-0.3-1.5-0.6-2.2c-0.2-0.5-0.8-0.2-1.2-0.3c-0.1-0.5,0.4-0.9,0.8-1.2c0.2-0.2,0.6-0.3,0.8,0
		c0.6,0.8,0.9,1.7,1.5,2.5c0.3,0,0.5-0.3,0.3-0.5C84.3,26.9,83.7,26.1,83.8,25.2z"/>
	<path class="st0" d="M98,27.2c0.8-0.5,1.6-1.1,2.4-1.5c0.2,0.2,0.3,0.5,0.5,0.8c-0.8,0.5-1.6,0.8-2.4,1.1c-0.9,0.4-1.8,0.8-2.8,1.1
		C96.4,28.2,97.2,27.7,98,27.2z"/>
	<path class="st0" d="M80.5,30.7c0.4-0.4,0.9-0.6,1.5-0.5c0.8,1.7,2.2,2.9,3.5,4c0.3,0.3,0.6,0.5,0.9,0.8c-0.1,0.2-0.3,0.3-0.4,0.5
		c-0.1-0.1-0.3-0.1-0.4-0.2C83.8,34,82.1,32.3,80.5,30.7z"/>
	<path class="st1" d="M71.6,31.9c3,0.2,6-0.2,8.9-1.2c1.6,1.6,3.3,3.2,5.2,4.6c0.6,3.7,1.2,7.4,1.9,11c0.2,0.8,0.2,1.8,0.9,2.4
		c0.4,0.4,1,0.4,1.6,0.6c0.3,0.2,0.3,0.5,0.2,0.8c-0.8,0.2-1.7,0.3-2.3-0.4c-1.1-1-1.2-2.6-1.4-4c-0.3-1.9-0.6-3.8-1.1-5.6
		c-0.1-0.4-0.2-0.9-0.6-1.2c-0.2,0.1-0.2,0.4-0.2,0.6c0.2,2.9,0.2,5.8,0.7,8.6c0.2,0.7,0.3,1.5,0.9,2c0.4,0.3,1,0.5,1.1,1.1
		c-0.6,0.3-1.3,0.3-1.7-0.1c-0.6-0.6-1-1.4-1.1-2.2c-0.3-2.5-0.6-5-1.1-7.5c-0.1-0.5-0.3-1.1-0.6-1.5c-0.6-0.7-1.5-1-2.4-1.2
		c-1.4-0.2-2.8-0.5-4.2-0.3c-0.5,0.1-1,0.3-1.3,0.8c-0.6,1-0.8,2.3-0.8,3.5c0,2-0.1,4-0.2,6.1c0,0.5,0,1,0.4,1.4
		c0.4,0.3,0.5,0.8,0.4,1.3c-0.7,0-1.4-0.4-1.7-1.1c-0.1-0.7,0-1.4,0-2.1c-0.1-2.4-0.2-4.7-0.3-7.1c-0.1-0.5,0.5-0.8,0.2-1.3
		c-0.1-0.2-0.3-0.6-0.6-0.4c-0.2,0.2-0.2,0.4-0.3,0.7c-0.2,2.6-0.5,5.3-0.7,7.9c0,0.4-0.1,0.9-0.1,1.3c0.2,0.5,0.8,0.9,0.8,1.5
		c0,0.2,0,0.6-0.3,0.7c-0.6-0.1-1.1-0.6-1.3-1.1C70,49.6,70,48.8,70.1,48c0.1-0.9,0-1.8,0-2.7c0-2.2-0.2-4.3-0.2-6.4
		c0.3-0.5,0.8-0.9,0.9-1.5c0.2-0.9,0.3-1.8,0.1-2.8c-0.1-0.8-0.7-1.4-1.1-2.1c-0.2-0.2-0.1-0.5-0.1-0.7C70.3,31.6,71,31.9,71.6,31.9
		z"/>
	<path class="st2" d="M71.6,31.9c3,0.2,6-0.2,8.9-1.2c1.6,1.6,3.3,3.2,5.2,4.6c0.6,3.7,1.2,7.4,1.9,11c0.2,0.8,0.2,1.8,0.9,2.4
		c0.4,0.4,1,0.4,1.6,0.6c0.3,0.2,0.3,0.5,0.2,0.8c-0.8,0.2-1.7,0.3-2.3-0.4c-1.1-1-1.2-2.6-1.4-4c-0.3-1.9-0.6-3.8-1.1-5.6
		c-0.1-0.4-0.2-0.9-0.6-1.2c-0.2,0.1-0.2,0.4-0.2,0.6c0.2,2.9,0.2,5.8,0.7,8.6c0.2,0.7,0.3,1.5,0.9,2c0.4,0.3,1,0.5,1.1,1.1
		c-0.6,0.3-1.3,0.3-1.7-0.1c-0.6-0.6-1-1.4-1.1-2.2c-0.3-2.5-0.6-5-1.1-7.5c-0.1-0.5-0.3-1.1-0.6-1.5c-0.6-0.7-1.5-1-2.4-1.2
		c-1.4-0.2-2.8-0.5-4.2-0.3c-0.5,0.1-1,0.3-1.3,0.8c-0.6,1-0.8,2.3-0.8,3.5c0,2-0.1,4-0.2,6.1c0,0.5,0,1,0.4,1.4
		c0.4,0.3,0.5,0.8,0.4,1.3c-0.7,0-1.4-0.4-1.7-1.1c-0.1-0.7,0-1.4,0-2.1c-0.1-2.4-0.2-4.7-0.3-7.1c-0.1-0.5,0.5-0.8,0.2-1.3
		c-0.1-0.2-0.3-0.6-0.6-0.4c-0.2,0.2-0.2,0.4-0.3,0.7c-0.2,2.6-0.5,5.3-0.7,7.9c0,0.4-0.1,0.9-0.1,1.3c0.2,0.5,0.8,0.9,0.8,1.5
		c0,0.2,0,0.6-0.3,0.7c-0.6-0.1-1.1-0.6-1.3-1.1C70,49.6,70,48.8,70.1,48c0.1-0.9,0-1.8,0-2.7c0-2.2-0.2-4.3-0.2-6.4
		c0.3-0.5,0.8-0.9,0.9-1.5c0.2-0.9,0.3-1.8,0.1-2.8c-0.1-0.8-0.7-1.4-1.1-2.1c-0.2-0.2-0.1-0.5-0.1-0.7C70.3,31.6,71,31.9,71.6,31.9
		z"/>
	<path class="st1" d="M86.4,35c0.3,0,0.6-0.1,0.8,0.1c0.3,0.2,0.4,0.6,0.3,0.9c-0.1,0.2-0.2,0.3-0.4,0.5c-0.3,0.1-0.7,0.1-0.9-0.1
		C86,36.1,86,35.8,86,35.5C86.1,35.3,86.3,35.2,86.4,35z"/>
	<path class="st2" d="M86.4,35c0.3,0,0.6-0.1,0.8,0.1c0.3,0.2,0.4,0.6,0.3,0.9c-0.1,0.2-0.2,0.3-0.4,0.5c-0.3,0.1-0.7,0.1-0.9-0.1
		C86,36.1,86,35.8,86,35.5C86.1,35.3,86.3,35.2,86.4,35z"/>
	<path class="st0" d="M86.4,35.7c0-0.4,0.3-0.4,0.6-0.5L87,35.4C86.8,35.5,86.6,35.6,86.4,35.7z"/>
	<path class="st3" d="M87,35.4c0.4,0,0.3,0.7,0,0.8c-0.3,0.1-0.5-0.2-0.6-0.4l0.1-0.1C86.6,35.6,86.8,35.5,87,35.4z"/>
	<path class="st4" d="M87,35.4c0.4,0,0.3,0.7,0,0.8c-0.3,0.1-0.5-0.2-0.6-0.4l0.1-0.1C86.6,35.6,86.8,35.5,87,35.4z"/>
	<path class="st0" d="M87.2,36.5c0.1-0.2,0.3-0.3,0.4-0.5c0.6,1,1.1,2,1.5,3.1c0.3,0.9,0.1,1.9,0,2.8c-0.2,1.6,0.2,3.1,0.8,4.6
		c0.7,1.9,2,3.6,3.8,4.5c0.8,0.4,2,0.6,2.8,0c0.2-0.2,0.5-0.3,0.4-0.6c-0.2-0.5-0.7-0.7-1.1-0.9c-1.2-0.5-2.5-0.6-3.7-0.3
		c1.3-0.6,2.9-0.6,4.2,0c0.5,0.2,0.9,0.7,0.8,1.2C97,51.3,96.2,52,95.3,52c-1.4,0.1-2.7-0.8-3.7-1.8c-1-1-1.7-2.4-2.2-3.8
		c-0.4-1-0.7-2.2-0.6-3.3c0-1,0.4-2.1,0.2-3.1C88.5,38.8,87.7,37.7,87.2,36.5z"/>
	<path class="st1" d="M82.5,55.6c1,0,1.9,0,2.9,0c0,6.8,0,13.6,0,20.4c-1,0-1.9,0-2.9,0"/>
	<path class="st2" d="M82.5,55.6c1,0,1.9,0,2.9,0c0,6.8,0,13.6,0,20.4c-1,0-1.9,0-2.9,0V55.6z"/>
	<path class="st1" d="M29.4,60.2c2.3,0,4.6,0,6.8,0c1.9,0,4.1,0.2,5.6,1.6c1.8,1.5,2,4.4,0.8,6.4c-0.9,1.3-2.5,1.9-4,2
		c1.9,2,3.9,3.9,5.8,5.8c-1.4,0-2.9,0-4.3,0c-1-0.9-1.9-2-2.9-3.1c-1.3-1.5-2.7-3-4-4.6c1.5,0,3.1,0.1,4.6-0.3
		c0.8-0.2,1.5-0.6,2-1.2c0.6-0.8,0.7-1.9,0.2-2.8c-0.5-0.8-1.4-1.3-2.3-1.5c-1-0.3-2.1-0.2-3.2-0.2c-0.8,0-1.5,0-2.3,0
		c0,4.5,0,9.1,0,13.6c-1,0-2,0-3,0"/>
	<path class="st2" d="M29.4,60.2c2.3,0,4.6,0,6.8,0c1.9,0,4.1,0.2,5.6,1.6c1.8,1.5,2,4.4,0.8,6.4c-0.9,1.3-2.5,1.9-4,2
		c1.9,2,3.9,3.9,5.8,5.8c-1.4,0-2.9,0-4.3,0c-1-0.9-1.9-2-2.9-3.1c-1.3-1.5-2.7-3-4-4.6c1.5,0,3.1,0.1,4.6-0.3
		c0.8-0.2,1.5-0.6,2-1.2c0.6-0.8,0.7-1.9,0.2-2.8c-0.5-0.8-1.4-1.3-2.3-1.5c-1-0.3-2.1-0.2-3.2-0.2c-0.8,0-1.5,0-2.3,0
		c0,4.5,0,9.1,0,13.6c-1,0-2,0-3,0V60.2z"/>
	<path class="st1" d="M67.7,61.4c1.7-1,3.7-1.3,5.6-1c2.8,0.5,5.2,2.6,5.9,5.4c-1.1,0-2.1,0-3.2,0c-0.5-0.9-1.1-1.8-2-2.3
		c-1.3-0.7-2.9-0.7-4.3-0.2c-1.4,0.5-2.3,1.8-2.8,3.1c-0.7,2.1-0.2,4.6,1.4,6.1c1.7,1.6,4.7,1.7,6.4,0c0.5-0.4,0.8-1,1.2-1.6
		c1.1,0,2.1,0,3.2,0c-0.6,2.1-2.2,3.8-4.1,4.7c-1.8,0.8-3.9,0.9-5.8,0.4c-1.6-0.5-3-1.6-4-3c-1.5-2.2-1.8-5.1-0.9-7.5
		C65,63.8,66.2,62.3,67.7,61.4z"/>
	<path class="st2" d="M67.7,61.4c1.7-1,3.7-1.3,5.6-1c2.8,0.5,5.2,2.6,5.9,5.4c-1.1,0-2.1,0-3.2,0c-0.5-0.9-1.1-1.8-2-2.3
		c-1.3-0.7-2.9-0.7-4.3-0.2c-1.4,0.5-2.3,1.8-2.8,3.1c-0.7,2.1-0.2,4.6,1.4,6.1c1.7,1.6,4.7,1.7,6.4,0c0.5-0.4,0.8-1,1.2-1.6
		c1.1,0,2.1,0,3.2,0c-0.6,2.1-2.2,3.8-4.1,4.7c-1.8,0.8-3.9,0.9-5.8,0.4c-1.6-0.5-3-1.6-4-3c-1.5-2.2-1.8-5.1-0.9-7.5
		C65,63.8,66.2,62.3,67.7,61.4z"/>
	<path class="st1" d="M119,60.8c1.4-0.5,3-0.6,4.5-0.1c1.1,0.3,2.1,1,2.8,1.9c0.4,0.6,0.7,1.4,0.6,2.1c-1.1,0-2.1,0-3.2,0
		c-0.2-0.7-0.6-1.4-1.3-1.7c-0.9-0.3-2.1-0.2-2.8,0.5c-0.6,0.5-0.6,1.5,0,2.1c0.4,0.4,1,0.6,1.5,0.8c0.9,0.3,1.8,0.4,2.6,0.8
		c1.2,0.4,2.4,1.1,3.1,2.2c0.9,1.4,0.8,3.4-0.1,4.8c-0.7,1-1.9,1.7-3.1,2c-1.8,0.5-3.9,0.3-5.6-0.6c-0.9-0.4-1.7-1.1-2.3-2
		c-0.4-0.7-0.6-1.6-0.6-2.4c1.1,0,2.1,0,3.2,0c0.2,0.8,0.4,1.6,1,2.1c1,0.8,2.6,0.9,3.8,0.3c1-0.5,1.4-1.8,0.8-2.7
		c-0.5-0.7-1.5-1-2.3-1.3c-1.5-0.5-3.2-0.8-4.5-1.9c-1.2-1-1.5-2.9-0.8-4.4C116.8,62.1,117.8,61.2,119,60.8z"/>
	<path class="st2" d="M119,60.8c1.4-0.5,3-0.6,4.5-0.1c1.1,0.3,2.1,1,2.8,1.9c0.4,0.6,0.7,1.4,0.6,2.1c-1.1,0-2.1,0-3.2,0
		c-0.2-0.7-0.6-1.4-1.3-1.7c-0.9-0.3-2.1-0.2-2.8,0.5c-0.6,0.5-0.6,1.5,0,2.1c0.4,0.4,1,0.6,1.5,0.8c0.9,0.3,1.8,0.4,2.6,0.8
		c1.2,0.4,2.4,1.1,3.1,2.2c0.9,1.4,0.8,3.4-0.1,4.8c-0.7,1-1.9,1.7-3.1,2c-1.8,0.5-3.9,0.3-5.6-0.6c-0.9-0.4-1.7-1.1-2.3-2
		c-0.4-0.7-0.6-1.6-0.6-2.4c1.1,0,2.1,0,3.2,0c0.2,0.8,0.4,1.6,1,2.1c1,0.8,2.6,0.9,3.8,0.3c1-0.5,1.4-1.8,0.8-2.7
		c-0.5-0.7-1.5-1-2.3-1.3c-1.5-0.5-3.2-0.8-4.5-1.9c-1.2-1-1.5-2.9-0.8-4.4C116.8,62.1,117.8,61.2,119,60.8z"/>
	<path class="st1" d="M98,60.7c1,0,1.9,0,2.9,0v7.2c0,1.5-0.1,3,0.7,4.3c0.5,0.8,1.4,1.3,2.3,1.5c1.2,0.2,2.6-0.1,3.5-1
		c0.9-0.9,1.2-2.3,1.2-3.5c0-2.8,0-5.6,0-8.4c1,0,1.9,0,2.9,0c0,5.1,0,10.2,0,15.3c-0.9,0-1.8,0-2.6,0c0-0.5,0-1,0-1.6
		c-0.6,0.9-1.6,1.5-2.6,1.7c-2.3,0.6-4.9,0.1-6.6-1.6c-1.3-1.3-1.6-3.2-1.7-4.9C98,66.7,98,63.7,98,60.7z"/>
	<path class="st2" d="M98,60.7c1,0,1.9,0,2.9,0v7.2c0,1.5-0.1,3,0.7,4.3c0.5,0.8,1.4,1.3,2.3,1.5c1.2,0.2,2.6-0.1,3.5-1
		c0.9-0.9,1.2-2.3,1.2-3.5c0-2.8,0-5.6,0-8.4c1,0,1.9,0,2.9,0c0,5.1,0,10.2,0,15.3c-0.9,0-1.8,0-2.6,0c0-0.5,0-1,0-1.6
		c-0.6,0.9-1.6,1.5-2.6,1.7c-2.3,0.6-4.9,0.1-6.6-1.6c-1.3-1.3-1.6-3.2-1.7-4.9C98,66.7,98,63.7,98,60.7z"/>
	<path class="st1" d="M46.8,60.7c1,0,1.9,0,2.9,0c0,2.8,0,5.6,0,8.3c0,1.3,0.2,2.6,1,3.6c0.7,0.9,2,1.1,3,1c1-0.1,2-0.5,2.7-1.3
		c0.8-1,1-2.4,1-3.6c0-2.7,0-5.4,0-8.1c1,0,1.9,0,2.9,0V76c-0.9,0-1.8,0-2.7,0c0-0.5,0-1,0-1.6c-0.6,0.9-1.6,1.5-2.6,1.7
		c-2.3,0.6-4.9,0.1-6.6-1.6c-1.3-1.4-1.6-3.3-1.7-5.2"/>
	<path class="st2" d="M46.8,60.7c1,0,1.9,0,2.9,0c0,2.8,0,5.6,0,8.3c0,1.3,0.2,2.6,1,3.6c0.7,0.9,2,1.1,3,1c1-0.1,2-0.5,2.7-1.3
		c0.8-1,1-2.4,1-3.6c0-2.7,0-5.4,0-8.1c1,0,1.9,0,2.9,0V76c-0.9,0-1.8,0-2.7,0c0-0.5,0-1,0-1.6c-0.6,0.9-1.6,1.5-2.6,1.7
		c-2.3,0.6-4.9,0.1-6.6-1.6c-1.3-1.4-1.6-3.3-1.7-5.2V60.7z"/>
	<path class="st1" d="M87,68.1c1.7-2.5,3.5-4.9,5.2-7.4c1.2,0,2.4,0,3.6,0c-1.8,2.4-3.7,4.8-5.5,7.2c2.1,2.7,4.3,5.4,6.4,8.1
		c-1.1,0-2.3,0-3.4,0c-0.2,0-0.4-0.2-0.5-0.3C90.9,73.1,88.9,70.6,87,68.1z"/>
	<path class="st2" d="M87,68.1c1.7-2.5,3.5-4.9,5.2-7.4c1.2,0,2.4,0,3.6,0c-1.8,2.4-3.7,4.8-5.5,7.2c2.1,2.7,4.3,5.4,6.4,8.1
		c-1.1,0-2.3,0-3.4,0c-0.2,0-0.4-0.2-0.5-0.3C90.9,73.1,88.9,70.6,87,68.1z"/>
	<path class="st1" d="M128.4,62.2c0.4,0,0.8,0,1.2,0c0,0.1,0.1,0.1,0.2,0.2c-0.2,0.1-0.4,0.1-0.6,0.1c0,0.5,0,1.1,0,1.6h-0.3
		c0-0.5,0-1,0-1.6c-0.2,0-0.4-0.1-0.6-0.1C128.3,62.3,128.3,62.3,128.4,62.2z"/>
	<path class="st2" d="M128.4,62.2c0.4,0,0.8,0,1.2,0c0,0.1,0.1,0.1,0.2,0.2c-0.2,0.1-0.4,0.1-0.6,0.1c0,0.5,0,1.1,0,1.6h-0.3
		c0-0.5,0-1,0-1.6c-0.2,0-0.4-0.1-0.6-0.1C128.3,62.3,128.3,62.3,128.4,62.2z"/>
	<path class="st1" d="M130.5,62c0.3,0.5,0.5,1,0.8,1.5c0.3-0.5,0.5-1,0.8-1.5c0.2,0.7,0.3,1.4,0.5,2.1c-0.1,0-0.3,0-0.4,0
		c-0.1-0.4-0.2-0.7-0.2-1.1c-0.3,0.4-0.5,0.8-0.7,1.2c-0.3-0.4-0.5-0.8-0.7-1.2c-0.1,0.3-0.2,0.7-0.3,1.1c-0.1,0-0.2,0-0.3,0
		C130.1,63.5,130.3,62.7,130.5,62z"/>
	<path class="st2" d="M130.5,62c0.3,0.5,0.5,1,0.8,1.5c0.3-0.5,0.5-1,0.8-1.5c0.2,0.7,0.3,1.4,0.5,2.1c-0.1,0-0.3,0-0.4,0
		c-0.1-0.4-0.2-0.7-0.2-1.1c-0.3,0.4-0.5,0.8-0.7,1.2c-0.3-0.4-0.5-0.8-0.7-1.2c-0.1,0.3-0.2,0.7-0.3,1.1c-0.1,0-0.2,0-0.3,0
		C130.1,63.5,130.3,62.7,130.5,62z"/>
	<path class="st1" d="M90.2,80.6c0.5,0,0.9,0,1.3,0c0,1.4,0,2.9,0,4.3c0.7,0,1.5,0,2.2,0v0.9c-1.2,0-2.4,0-3.6,0
		C90.2,84.1,90.1,82.3,90.2,80.6z"/>
	<path class="st2" d="M90.2,80.6c0.5,0,0.9,0,1.3,0c0,1.4,0,2.9,0,4.3c0.7,0,1.5,0,2.2,0v0.9c-1.2,0-2.4,0-3.6,0
		C90.2,84.1,90.1,82.3,90.2,80.6z"/>
	<path class="st1" d="M96.4,80.6c1.3,0,2.6,0,3.9,0c0,0.3,0,0.6,0,1c-0.8,0-1.7,0-2.5,0v1.2c0.8,0,1.6,0,2.4,0c0,0.3,0,0.6,0,1
		c-0.8,0-1.6,0-2.4,0v1.2c0.8,0,1.7,0,2.5,0c0,0.3,0,0.6,0,0.9c-1.3,0-2.6,0-3.9,0C96.3,84.1,96.3,82.3,96.4,80.6z"/>
	<path class="st2" d="M96.4,80.6c1.3,0,2.6,0,3.9,0c0,0.3,0,0.6,0,1c-0.8,0-1.7,0-2.5,0v1.2c0.8,0,1.6,0,2.4,0c0,0.3,0,0.6,0,1
		c-0.8,0-1.6,0-2.4,0v1.2c0.8,0,1.7,0,2.5,0c0,0.3,0,0.6,0,0.9c-1.3,0-2.6,0-3.9,0C96.3,84.1,96.3,82.3,96.4,80.6z"/>
	<path class="st1" d="M103.6,81.1c0.8-0.7,2.1-0.7,3-0.3c0.5,0.2,0.8,0.7,0.9,1.2c-0.5,0-1,0.1-1.4-0.1c-0.3-0.6-1.1-0.7-1.5-0.3
		c-0.2,0.2,0,0.6,0.2,0.7c0.8,0.3,1.8,0.3,2.4,1c0.6,0.5,0.5,1.6-0.2,2c-0.7,0.6-1.7,0.6-2.6,0.5c-0.8-0.2-1.5-0.7-1.6-1.5
		c0.5,0,0.9,0,1.4,0c0.3,0.8,1.3,0.9,1.9,0.4c0.2-0.3,0.1-0.7-0.2-0.8c-0.7-0.4-1.7-0.4-2.3-0.9C103,82.5,103,81.5,103.6,81.1z"/>
	<path class="st2" d="M103.6,81.1c0.8-0.7,2.1-0.7,3-0.3c0.5,0.2,0.8,0.7,0.9,1.2c-0.5,0-1,0.1-1.4-0.1c-0.3-0.6-1.1-0.7-1.5-0.3
		c-0.2,0.2,0,0.6,0.2,0.7c0.8,0.3,1.8,0.3,2.4,1c0.6,0.5,0.5,1.6-0.2,2c-0.7,0.6-1.7,0.6-2.6,0.5c-0.8-0.2-1.5-0.7-1.6-1.5
		c0.5,0,0.9,0,1.4,0c0.3,0.8,1.3,0.9,1.9,0.4c0.2-0.3,0.1-0.7-0.2-0.8c-0.7-0.4-1.7-0.4-2.3-0.9C103,82.5,103,81.5,103.6,81.1z"/>
	<path class="st1" d="M110.2,81.9c0-0.7,0.7-1.2,1.3-1.3c0.9-0.2,1.9-0.1,2.6,0.6c0.2,0.2,0.3,0.6,0.4,0.9c-0.5,0-0.9,0-1.4,0
		c-0.2-0.6-0.9-0.8-1.4-0.4c-0.3,0.2-0.2,0.6,0.1,0.8c0.6,0.3,1.3,0.3,1.9,0.6c0.5,0.2,1,0.7,0.9,1.3c0,0.8-0.7,1.3-1.4,1.5
		c-1,0.3-2.1,0.2-2.8-0.4c-0.3-0.2-0.5-0.6-0.6-1c0.5,0,1,0,1.4,0c0.2,0.8,1.3,0.9,1.8,0.4c0.3-0.2,0.2-0.7-0.1-0.8
		c-0.7-0.4-1.6-0.4-2.3-0.8C110.4,82.8,110.2,82.3,110.2,81.9z"/>
	<path class="st2" d="M110.2,81.9c0-0.7,0.7-1.2,1.3-1.3c0.9-0.2,1.9-0.1,2.6,0.6c0.2,0.2,0.3,0.6,0.4,0.9c-0.5,0-0.9,0-1.4,0
		c-0.2-0.6-0.9-0.8-1.4-0.4c-0.3,0.2-0.2,0.6,0.1,0.8c0.6,0.3,1.3,0.3,1.9,0.6c0.5,0.2,1,0.7,0.9,1.3c0,0.8-0.7,1.3-1.4,1.5
		c-1,0.3-2.1,0.2-2.8-0.4c-0.3-0.2-0.5-0.6-0.6-1c0.5,0,1,0,1.4,0c0.2,0.8,1.3,0.9,1.8,0.4c0.3-0.2,0.2-0.7-0.1-0.8
		c-0.7-0.4-1.6-0.4-2.3-0.8C110.4,82.8,110.2,82.3,110.2,81.9z"/>
	<path class="st1" d="M59.3,80.6c0.4,0,0.9,0,1.3,0c0.2,0.1,0.2,0.3,0.2,0.5c0.3,1,0.7,2,1.1,3.1c0.5-1.2,0.8-2.4,1.2-3.5
		c0.3,0,0.7,0,1,0c0.4,1.2,0.8,2.4,1.2,3.6c0.5-1.2,0.8-2.4,1.3-3.6c0.5,0,0.9,0,1.4,0c-0.7,1.7-1.4,3.5-2.1,5.2
		c-0.4,0-0.8,0.1-1.1-0.1c-0.4-1.1-0.7-2.2-1.2-3.3c-0.4,1.1-0.8,2.3-1.2,3.4c-0.4,0-0.7,0-1.1,0C60.7,84.1,60,82.4,59.3,80.6z"/>
	<path class="st2" d="M59.3,80.6c0.4,0,0.9,0,1.3,0c0.2,0.1,0.2,0.3,0.2,0.5c0.3,1,0.7,2,1.1,3.1c0.5-1.2,0.8-2.4,1.2-3.5
		c0.3,0,0.7,0,1,0c0.4,1.2,0.8,2.4,1.2,3.6c0.5-1.2,0.8-2.4,1.3-3.6c0.5,0,0.9,0,1.4,0c-0.7,1.7-1.4,3.5-2.1,5.2
		c-0.4,0-0.8,0.1-1.1-0.1c-0.4-1.1-0.7-2.2-1.2-3.3c-0.4,1.1-0.8,2.3-1.2,3.4c-0.4,0-0.7,0-1.1,0C60.7,84.1,60,82.4,59.3,80.6z"/>
	<path class="st1" d="M70.7,80.6c0.5,0,0.9,0,1.4,0c0,1.7,0,3.5,0,5.2c-0.5,0-0.9,0-1.4,0C70.7,84.1,70.8,82.4,70.7,80.6z"/>
	<path class="st2" d="M70.7,80.6c0.5,0,0.9,0,1.4,0c0,1.7,0,3.5,0,5.2c-0.5,0-0.9,0-1.4,0C70.7,84.1,70.8,82.4,70.7,80.6z"/>
	<path class="st1" d="M75.4,80.6c0.9,0,1.8,0,2.7,0c0.8,0,1.6,0.3,2,1c0.3,0.6,0.1,1.3-0.4,1.7c-0.4,0.3-0.9,0.4-1.3,0.6
		c0.6,0.6,1.3,1.2,1.9,1.9c-0.5,0-1.1,0.1-1.6,0c-0.7-0.6-1.2-1.3-1.9-1.9c0,0.6,0,1.3,0,1.9c-0.5,0-0.9,0-1.4,0
		C75.4,84.1,75.4,82.3,75.4,80.6z"/>
	<path class="st2" d="M75.4,80.6c0.9,0,1.8,0,2.7,0c0.8,0,1.6,0.3,2,1c0.3,0.6,0.1,1.3-0.4,1.7c-0.4,0.3-0.9,0.4-1.3,0.6
		c0.6,0.6,1.3,1.2,1.9,1.9c-0.5,0-1.1,0.1-1.6,0c-0.7-0.6-1.2-1.3-1.9-1.9c0,0.6,0,1.3,0,1.9c-0.5,0-0.9,0-1.4,0
		C75.4,84.1,75.4,82.3,75.4,80.6z"/>
	<path class="st1" d="M83,80.6c1.3,0,2.7,0,4,0c0,0.3,0,0.6,0,0.9c-0.9,0-1.7,0-2.6,0c0,0.4,0,0.8,0,1.2c0.8,0.1,1.6,0,2.5,0.1
		c0,0.3,0,0.6,0,0.9c-0.8,0-1.6,0-2.4,0c0,0.4,0,0.8,0,1.2c0.9,0.1,1.7,0,2.6,0.1c0,0.3,0,0.6,0,0.9c-1.3,0-2.6,0-4,0
		C83,84.1,83,82.4,83,80.6z"/>
	<path class="st2" d="M83,80.6c1.3,0,2.7,0,4,0c0,0.3,0,0.6,0,0.9c-0.9,0-1.7,0-2.6,0c0,0.4,0,0.8,0,1.2c0.8,0.1,1.6,0,2.5,0.1
		c0,0.3,0,0.6,0,0.9c-0.8,0-1.6,0-2.4,0c0,0.4,0,0.8,0,1.2c0.9,0.1,1.7,0,2.6,0.1c0,0.3,0,0.6,0,0.9c-1.3,0-2.6,0-4,0
		C83,84.1,83,82.4,83,80.6z"/>
	<path class="st3" d="M76.8,81.6c0.6,0,1.4-0.2,1.9,0.3c0.3,0.3,0.2,0.8-0.1,1c-0.5,0.3-1.2,0.2-1.8,0.2"/>
	<path class="st4" d="M76.8,81.6c0.6,0,1.4-0.2,1.9,0.3c0.3,0.3,0.2,0.8-0.1,1c-0.5,0.3-1.2,0.2-1.8,0.2V81.6z"/>
</g>
</svg>
